<?xml version="1.0" encoding="utf-8" standalone="no"?>
<!DOCTYPE svg PUBLIC "-//W3C//DTD SVG 1.1//EN"
  "http://www.w3.org/Graphics/SVG/1.1/DTD/svg11.dtd">
<svg height="432pt" version="1.1" viewBox="0 0 720 432" width="720pt" xmlns="http://www.w3.org/2000/svg" xmlns:xlink="http://www.w3.org/1999/xlink">
 <metadata>
  <rdf:RDF xmlns:cc="http://creativecommons.org/ns#" xmlns:dc="http://purl.org/dc/elements/1.1/" xmlns:rdf="http://www.w3.org/1999/02/22-rdf-syntax-ns#">
   <cc:Work>
    <dc:type rdf:resource="http://purl.org/dc/dcmitype/StillImage"/>
    <dc:date>2021-04-28T18:57:12.076619</dc:date>
    <dc:format>image/svg+xml</dc:format>
    <dc:creator>
     <cc:Agent>
      <dc:title>Matplotlib v3.4.1, https://matplotlib.org/</dc:title>
     </cc:Agent>
    </dc:creator>
   </cc:Work>
  </rdf:RDF>
 </metadata>
 <defs>
  <style type="text/css">*{stroke-linecap:butt;stroke-linejoin:round;}</style>
 </defs>
 <g id="figure_1">
  <g id="patch_1">
   <path d="M 0 432 
L 720 432 
L 720 0 
L 0 0 
z
" style="fill:none;"/>
  </g>
  <g id="axes_1">
   <g id="patch_2">
    <path d="M 90 345.6 
L 648 345.6 
L 648 51.84 
L 90 51.84 
z
" style="fill:#ffffff;"/>
   </g>
   <g id="matplotlib.axis_1">
    <g id="xtick_1">
     <g id="line2d_1">
      <defs>
       <path d="M 0 0 
L 0 3.5 
" id="mbb7a32778c" style="stroke:#000000;stroke-width:0.8;"/>
      </defs>
      <g>
       <use style="stroke:#000000;stroke-width:0.8;" x="120.563604" xlink:href="#mbb7a32778c" y="345.6"/>
      </g>
     </g>
     <g id="text_1">
      <!-- 2011 -->
      <g transform="translate(110.923118 371.90544)rotate(-30)scale(0.1 -0.1)">
       <defs>
        <path d="M 1228 531 
L 3431 531 
L 3431 0 
L 469 0 
L 469 531 
Q 828 903 1448 1529 
Q 2069 2156 2228 2338 
Q 2531 2678 2651 2914 
Q 2772 3150 2772 3378 
Q 2772 3750 2511 3984 
Q 2250 4219 1831 4219 
Q 1534 4219 1204 4116 
Q 875 4013 500 3803 
L 500 4441 
Q 881 4594 1212 4672 
Q 1544 4750 1819 4750 
Q 2544 4750 2975 4387 
Q 3406 4025 3406 3419 
Q 3406 3131 3298 2873 
Q 3191 2616 2906 2266 
Q 2828 2175 2409 1742 
Q 1991 1309 1228 531 
z
" id="DejaVuSans-32" transform="scale(0.015625)"/>
        <path d="M 2034 4250 
Q 1547 4250 1301 3770 
Q 1056 3291 1056 2328 
Q 1056 1369 1301 889 
Q 1547 409 2034 409 
Q 2525 409 2770 889 
Q 3016 1369 3016 2328 
Q 3016 3291 2770 3770 
Q 2525 4250 2034 4250 
z
M 2034 4750 
Q 2819 4750 3233 4129 
Q 3647 3509 3647 2328 
Q 3647 1150 3233 529 
Q 2819 -91 2034 -91 
Q 1250 -91 836 529 
Q 422 1150 422 2328 
Q 422 3509 836 4129 
Q 1250 4750 2034 4750 
z
" id="DejaVuSans-30" transform="scale(0.015625)"/>
        <path d="M 794 531 
L 1825 531 
L 1825 4091 
L 703 3866 
L 703 4441 
L 1819 4666 
L 2450 4666 
L 2450 531 
L 3481 531 
L 3481 0 
L 794 0 
L 794 531 
z
" id="DejaVuSans-31" transform="scale(0.015625)"/>
       </defs>
       <use xlink:href="#DejaVuSans-32"/>
       <use x="63.623047" xlink:href="#DejaVuSans-30"/>
       <use x="127.246094" xlink:href="#DejaVuSans-31"/>
       <use x="190.869141" xlink:href="#DejaVuSans-31"/>
      </g>
     </g>
    </g>
    <g id="xtick_2">
     <g id="line2d_2">
      <g>
       <use style="stroke:#000000;stroke-width:0.8;" x="172.693115" xlink:href="#mbb7a32778c" y="345.6"/>
      </g>
     </g>
     <g id="text_2">
      <!-- 2012 -->
      <g transform="translate(163.052629 371.90544)rotate(-30)scale(0.1 -0.1)">
       <use xlink:href="#DejaVuSans-32"/>
       <use x="63.623047" xlink:href="#DejaVuSans-30"/>
       <use x="127.246094" xlink:href="#DejaVuSans-31"/>
       <use x="190.869141" xlink:href="#DejaVuSans-32"/>
      </g>
     </g>
    </g>
    <g id="xtick_3">
     <g id="line2d_3">
      <g>
       <use style="stroke:#000000;stroke-width:0.8;" x="224.965447" xlink:href="#mbb7a32778c" y="345.6"/>
      </g>
     </g>
     <g id="text_3">
      <!-- 2013 -->
      <g transform="translate(215.324961 371.90544)rotate(-30)scale(0.1 -0.1)">
       <defs>
        <path d="M 2597 2516 
Q 3050 2419 3304 2112 
Q 3559 1806 3559 1356 
Q 3559 666 3084 287 
Q 2609 -91 1734 -91 
Q 1441 -91 1130 -33 
Q 819 25 488 141 
L 488 750 
Q 750 597 1062 519 
Q 1375 441 1716 441 
Q 2309 441 2620 675 
Q 2931 909 2931 1356 
Q 2931 1769 2642 2001 
Q 2353 2234 1838 2234 
L 1294 2234 
L 1294 2753 
L 1863 2753 
Q 2328 2753 2575 2939 
Q 2822 3125 2822 3475 
Q 2822 3834 2567 4026 
Q 2313 4219 1838 4219 
Q 1578 4219 1281 4162 
Q 984 4106 628 3988 
L 628 4550 
Q 988 4650 1302 4700 
Q 1616 4750 1894 4750 
Q 2613 4750 3031 4423 
Q 3450 4097 3450 3541 
Q 3450 3153 3228 2886 
Q 3006 2619 2597 2516 
z
" id="DejaVuSans-33" transform="scale(0.015625)"/>
       </defs>
       <use xlink:href="#DejaVuSans-32"/>
       <use x="63.623047" xlink:href="#DejaVuSans-30"/>
       <use x="127.246094" xlink:href="#DejaVuSans-31"/>
       <use x="190.869141" xlink:href="#DejaVuSans-33"/>
      </g>
     </g>
    </g>
    <g id="xtick_4">
     <g id="line2d_4">
      <g>
       <use style="stroke:#000000;stroke-width:0.8;" x="277.094958" xlink:href="#mbb7a32778c" y="345.6"/>
      </g>
     </g>
     <g id="text_4">
      <!-- 2014 -->
      <g transform="translate(267.454472 371.90544)rotate(-30)scale(0.1 -0.1)">
       <defs>
        <path d="M 2419 4116 
L 825 1625 
L 2419 1625 
L 2419 4116 
z
M 2253 4666 
L 3047 4666 
L 3047 1625 
L 3713 1625 
L 3713 1100 
L 3047 1100 
L 3047 0 
L 2419 0 
L 2419 1100 
L 313 1100 
L 313 1709 
L 2253 4666 
z
" id="DejaVuSans-34" transform="scale(0.015625)"/>
       </defs>
       <use xlink:href="#DejaVuSans-32"/>
       <use x="63.623047" xlink:href="#DejaVuSans-30"/>
       <use x="127.246094" xlink:href="#DejaVuSans-31"/>
       <use x="190.869141" xlink:href="#DejaVuSans-34"/>
      </g>
     </g>
    </g>
    <g id="xtick_5">
     <g id="line2d_5">
      <g>
       <use style="stroke:#000000;stroke-width:0.8;" x="329.224469" xlink:href="#mbb7a32778c" y="345.6"/>
      </g>
     </g>
     <g id="text_5">
      <!-- 2015 -->
      <g transform="translate(319.583983 371.90544)rotate(-30)scale(0.1 -0.1)">
       <defs>
        <path d="M 691 4666 
L 3169 4666 
L 3169 4134 
L 1269 4134 
L 1269 2991 
Q 1406 3038 1543 3061 
Q 1681 3084 1819 3084 
Q 2600 3084 3056 2656 
Q 3513 2228 3513 1497 
Q 3513 744 3044 326 
Q 2575 -91 1722 -91 
Q 1428 -91 1123 -41 
Q 819 9 494 109 
L 494 744 
Q 775 591 1075 516 
Q 1375 441 1709 441 
Q 2250 441 2565 725 
Q 2881 1009 2881 1497 
Q 2881 1984 2565 2268 
Q 2250 2553 1709 2553 
Q 1456 2553 1204 2497 
Q 953 2441 691 2322 
L 691 4666 
z
" id="DejaVuSans-35" transform="scale(0.015625)"/>
       </defs>
       <use xlink:href="#DejaVuSans-32"/>
       <use x="63.623047" xlink:href="#DejaVuSans-30"/>
       <use x="127.246094" xlink:href="#DejaVuSans-31"/>
       <use x="190.869141" xlink:href="#DejaVuSans-35"/>
      </g>
     </g>
    </g>
    <g id="xtick_6">
     <g id="line2d_6">
      <g>
       <use style="stroke:#000000;stroke-width:0.8;" x="381.35398" xlink:href="#mbb7a32778c" y="345.6"/>
      </g>
     </g>
     <g id="text_6">
      <!-- 2016 -->
      <g transform="translate(371.713494 371.90544)rotate(-30)scale(0.1 -0.1)">
       <defs>
        <path d="M 2113 2584 
Q 1688 2584 1439 2293 
Q 1191 2003 1191 1497 
Q 1191 994 1439 701 
Q 1688 409 2113 409 
Q 2538 409 2786 701 
Q 3034 994 3034 1497 
Q 3034 2003 2786 2293 
Q 2538 2584 2113 2584 
z
M 3366 4563 
L 3366 3988 
Q 3128 4100 2886 4159 
Q 2644 4219 2406 4219 
Q 1781 4219 1451 3797 
Q 1122 3375 1075 2522 
Q 1259 2794 1537 2939 
Q 1816 3084 2150 3084 
Q 2853 3084 3261 2657 
Q 3669 2231 3669 1497 
Q 3669 778 3244 343 
Q 2819 -91 2113 -91 
Q 1303 -91 875 529 
Q 447 1150 447 2328 
Q 447 3434 972 4092 
Q 1497 4750 2381 4750 
Q 2619 4750 2861 4703 
Q 3103 4656 3366 4563 
z
" id="DejaVuSans-36" transform="scale(0.015625)"/>
       </defs>
       <use xlink:href="#DejaVuSans-32"/>
       <use x="63.623047" xlink:href="#DejaVuSans-30"/>
       <use x="127.246094" xlink:href="#DejaVuSans-31"/>
       <use x="190.869141" xlink:href="#DejaVuSans-36"/>
      </g>
     </g>
    </g>
    <g id="xtick_7">
     <g id="line2d_7">
      <g>
       <use style="stroke:#000000;stroke-width:0.8;" x="433.626312" xlink:href="#mbb7a32778c" y="345.6"/>
      </g>
     </g>
     <g id="text_7">
      <!-- 2017 -->
      <g transform="translate(423.985826 371.90544)rotate(-30)scale(0.1 -0.1)">
       <defs>
        <path d="M 525 4666 
L 3525 4666 
L 3525 4397 
L 1831 0 
L 1172 0 
L 2766 4134 
L 525 4134 
L 525 4666 
z
" id="DejaVuSans-37" transform="scale(0.015625)"/>
       </defs>
       <use xlink:href="#DejaVuSans-32"/>
       <use x="63.623047" xlink:href="#DejaVuSans-30"/>
       <use x="127.246094" xlink:href="#DejaVuSans-31"/>
       <use x="190.869141" xlink:href="#DejaVuSans-37"/>
      </g>
     </g>
    </g>
    <g id="xtick_8">
     <g id="line2d_8">
      <g>
       <use style="stroke:#000000;stroke-width:0.8;" x="485.755823" xlink:href="#mbb7a32778c" y="345.6"/>
      </g>
     </g>
     <g id="text_8">
      <!-- 2018 -->
      <g transform="translate(476.115337 371.90544)rotate(-30)scale(0.1 -0.1)">
       <defs>
        <path d="M 2034 2216 
Q 1584 2216 1326 1975 
Q 1069 1734 1069 1313 
Q 1069 891 1326 650 
Q 1584 409 2034 409 
Q 2484 409 2743 651 
Q 3003 894 3003 1313 
Q 3003 1734 2745 1975 
Q 2488 2216 2034 2216 
z
M 1403 2484 
Q 997 2584 770 2862 
Q 544 3141 544 3541 
Q 544 4100 942 4425 
Q 1341 4750 2034 4750 
Q 2731 4750 3128 4425 
Q 3525 4100 3525 3541 
Q 3525 3141 3298 2862 
Q 3072 2584 2669 2484 
Q 3125 2378 3379 2068 
Q 3634 1759 3634 1313 
Q 3634 634 3220 271 
Q 2806 -91 2034 -91 
Q 1263 -91 848 271 
Q 434 634 434 1313 
Q 434 1759 690 2068 
Q 947 2378 1403 2484 
z
M 1172 3481 
Q 1172 3119 1398 2916 
Q 1625 2713 2034 2713 
Q 2441 2713 2670 2916 
Q 2900 3119 2900 3481 
Q 2900 3844 2670 4047 
Q 2441 4250 2034 4250 
Q 1625 4250 1398 4047 
Q 1172 3844 1172 3481 
z
" id="DejaVuSans-38" transform="scale(0.015625)"/>
       </defs>
       <use xlink:href="#DejaVuSans-32"/>
       <use x="63.623047" xlink:href="#DejaVuSans-30"/>
       <use x="127.246094" xlink:href="#DejaVuSans-31"/>
       <use x="190.869141" xlink:href="#DejaVuSans-38"/>
      </g>
     </g>
    </g>
    <g id="xtick_9">
     <g id="line2d_9">
      <g>
       <use style="stroke:#000000;stroke-width:0.8;" x="537.885334" xlink:href="#mbb7a32778c" y="345.6"/>
      </g>
     </g>
     <g id="text_9">
      <!-- 2019 -->
      <g transform="translate(528.244848 371.90544)rotate(-30)scale(0.1 -0.1)">
       <defs>
        <path d="M 703 97 
L 703 672 
Q 941 559 1184 500 
Q 1428 441 1663 441 
Q 2288 441 2617 861 
Q 2947 1281 2994 2138 
Q 2813 1869 2534 1725 
Q 2256 1581 1919 1581 
Q 1219 1581 811 2004 
Q 403 2428 403 3163 
Q 403 3881 828 4315 
Q 1253 4750 1959 4750 
Q 2769 4750 3195 4129 
Q 3622 3509 3622 2328 
Q 3622 1225 3098 567 
Q 2575 -91 1691 -91 
Q 1453 -91 1209 -44 
Q 966 3 703 97 
z
M 1959 2075 
Q 2384 2075 2632 2365 
Q 2881 2656 2881 3163 
Q 2881 3666 2632 3958 
Q 2384 4250 1959 4250 
Q 1534 4250 1286 3958 
Q 1038 3666 1038 3163 
Q 1038 2656 1286 2365 
Q 1534 2075 1959 2075 
z
" id="DejaVuSans-39" transform="scale(0.015625)"/>
       </defs>
       <use xlink:href="#DejaVuSans-32"/>
       <use x="63.623047" xlink:href="#DejaVuSans-30"/>
       <use x="127.246094" xlink:href="#DejaVuSans-31"/>
       <use x="190.869141" xlink:href="#DejaVuSans-39"/>
      </g>
     </g>
    </g>
    <g id="xtick_10">
     <g id="line2d_10">
      <g>
       <use style="stroke:#000000;stroke-width:0.8;" x="590.014845" xlink:href="#mbb7a32778c" y="345.6"/>
      </g>
     </g>
     <g id="text_10">
      <!-- 2020 -->
      <g transform="translate(580.374359 371.90544)rotate(-30)scale(0.1 -0.1)">
       <use xlink:href="#DejaVuSans-32"/>
       <use x="63.623047" xlink:href="#DejaVuSans-30"/>
       <use x="127.246094" xlink:href="#DejaVuSans-32"/>
       <use x="190.869141" xlink:href="#DejaVuSans-30"/>
      </g>
     </g>
    </g>
    <g id="xtick_11">
     <g id="line2d_11">
      <g>
       <use style="stroke:#000000;stroke-width:0.8;" x="642.287177" xlink:href="#mbb7a32778c" y="345.6"/>
      </g>
     </g>
     <g id="text_11">
      <!-- 2021 -->
      <g transform="translate(632.646691 371.90544)rotate(-30)scale(0.1 -0.1)">
       <use xlink:href="#DejaVuSans-32"/>
       <use x="63.623047" xlink:href="#DejaVuSans-30"/>
       <use x="127.246094" xlink:href="#DejaVuSans-32"/>
       <use x="190.869141" xlink:href="#DejaVuSans-31"/>
      </g>
     </g>
    </g>
    <g id="text_12">
     <!-- Repository creation date -->
     <g transform="translate(307.549219 385.30494)scale(0.1 -0.1)">
      <defs>
       <path d="M 2841 2188 
Q 3044 2119 3236 1894 
Q 3428 1669 3622 1275 
L 4263 0 
L 3584 0 
L 2988 1197 
Q 2756 1666 2539 1819 
Q 2322 1972 1947 1972 
L 1259 1972 
L 1259 0 
L 628 0 
L 628 4666 
L 2053 4666 
Q 2853 4666 3247 4331 
Q 3641 3997 3641 3322 
Q 3641 2881 3436 2590 
Q 3231 2300 2841 2188 
z
M 1259 4147 
L 1259 2491 
L 2053 2491 
Q 2509 2491 2742 2702 
Q 2975 2913 2975 3322 
Q 2975 3731 2742 3939 
Q 2509 4147 2053 4147 
L 1259 4147 
z
" id="DejaVuSans-52" transform="scale(0.015625)"/>
       <path d="M 3597 1894 
L 3597 1613 
L 953 1613 
Q 991 1019 1311 708 
Q 1631 397 2203 397 
Q 2534 397 2845 478 
Q 3156 559 3463 722 
L 3463 178 
Q 3153 47 2828 -22 
Q 2503 -91 2169 -91 
Q 1331 -91 842 396 
Q 353 884 353 1716 
Q 353 2575 817 3079 
Q 1281 3584 2069 3584 
Q 2775 3584 3186 3129 
Q 3597 2675 3597 1894 
z
M 3022 2063 
Q 3016 2534 2758 2815 
Q 2500 3097 2075 3097 
Q 1594 3097 1305 2825 
Q 1016 2553 972 2059 
L 3022 2063 
z
" id="DejaVuSans-65" transform="scale(0.015625)"/>
       <path d="M 1159 525 
L 1159 -1331 
L 581 -1331 
L 581 3500 
L 1159 3500 
L 1159 2969 
Q 1341 3281 1617 3432 
Q 1894 3584 2278 3584 
Q 2916 3584 3314 3078 
Q 3713 2572 3713 1747 
Q 3713 922 3314 415 
Q 2916 -91 2278 -91 
Q 1894 -91 1617 61 
Q 1341 213 1159 525 
z
M 3116 1747 
Q 3116 2381 2855 2742 
Q 2594 3103 2138 3103 
Q 1681 3103 1420 2742 
Q 1159 2381 1159 1747 
Q 1159 1113 1420 752 
Q 1681 391 2138 391 
Q 2594 391 2855 752 
Q 3116 1113 3116 1747 
z
" id="DejaVuSans-70" transform="scale(0.015625)"/>
       <path d="M 1959 3097 
Q 1497 3097 1228 2736 
Q 959 2375 959 1747 
Q 959 1119 1226 758 
Q 1494 397 1959 397 
Q 2419 397 2687 759 
Q 2956 1122 2956 1747 
Q 2956 2369 2687 2733 
Q 2419 3097 1959 3097 
z
M 1959 3584 
Q 2709 3584 3137 3096 
Q 3566 2609 3566 1747 
Q 3566 888 3137 398 
Q 2709 -91 1959 -91 
Q 1206 -91 779 398 
Q 353 888 353 1747 
Q 353 2609 779 3096 
Q 1206 3584 1959 3584 
z
" id="DejaVuSans-6f" transform="scale(0.015625)"/>
       <path d="M 2834 3397 
L 2834 2853 
Q 2591 2978 2328 3040 
Q 2066 3103 1784 3103 
Q 1356 3103 1142 2972 
Q 928 2841 928 2578 
Q 928 2378 1081 2264 
Q 1234 2150 1697 2047 
L 1894 2003 
Q 2506 1872 2764 1633 
Q 3022 1394 3022 966 
Q 3022 478 2636 193 
Q 2250 -91 1575 -91 
Q 1294 -91 989 -36 
Q 684 19 347 128 
L 347 722 
Q 666 556 975 473 
Q 1284 391 1588 391 
Q 1994 391 2212 530 
Q 2431 669 2431 922 
Q 2431 1156 2273 1281 
Q 2116 1406 1581 1522 
L 1381 1569 
Q 847 1681 609 1914 
Q 372 2147 372 2553 
Q 372 3047 722 3315 
Q 1072 3584 1716 3584 
Q 2034 3584 2315 3537 
Q 2597 3491 2834 3397 
z
" id="DejaVuSans-73" transform="scale(0.015625)"/>
       <path d="M 603 3500 
L 1178 3500 
L 1178 0 
L 603 0 
L 603 3500 
z
M 603 4863 
L 1178 4863 
L 1178 4134 
L 603 4134 
L 603 4863 
z
" id="DejaVuSans-69" transform="scale(0.015625)"/>
       <path d="M 1172 4494 
L 1172 3500 
L 2356 3500 
L 2356 3053 
L 1172 3053 
L 1172 1153 
Q 1172 725 1289 603 
Q 1406 481 1766 481 
L 2356 481 
L 2356 0 
L 1766 0 
Q 1100 0 847 248 
Q 594 497 594 1153 
L 594 3053 
L 172 3053 
L 172 3500 
L 594 3500 
L 594 4494 
L 1172 4494 
z
" id="DejaVuSans-74" transform="scale(0.015625)"/>
       <path d="M 2631 2963 
Q 2534 3019 2420 3045 
Q 2306 3072 2169 3072 
Q 1681 3072 1420 2755 
Q 1159 2438 1159 1844 
L 1159 0 
L 581 0 
L 581 3500 
L 1159 3500 
L 1159 2956 
Q 1341 3275 1631 3429 
Q 1922 3584 2338 3584 
Q 2397 3584 2469 3576 
Q 2541 3569 2628 3553 
L 2631 2963 
z
" id="DejaVuSans-72" transform="scale(0.015625)"/>
       <path d="M 2059 -325 
Q 1816 -950 1584 -1140 
Q 1353 -1331 966 -1331 
L 506 -1331 
L 506 -850 
L 844 -850 
Q 1081 -850 1212 -737 
Q 1344 -625 1503 -206 
L 1606 56 
L 191 3500 
L 800 3500 
L 1894 763 
L 2988 3500 
L 3597 3500 
L 2059 -325 
z
" id="DejaVuSans-79" transform="scale(0.015625)"/>
       <path id="DejaVuSans-20" transform="scale(0.015625)"/>
       <path d="M 3122 3366 
L 3122 2828 
Q 2878 2963 2633 3030 
Q 2388 3097 2138 3097 
Q 1578 3097 1268 2742 
Q 959 2388 959 1747 
Q 959 1106 1268 751 
Q 1578 397 2138 397 
Q 2388 397 2633 464 
Q 2878 531 3122 666 
L 3122 134 
Q 2881 22 2623 -34 
Q 2366 -91 2075 -91 
Q 1284 -91 818 406 
Q 353 903 353 1747 
Q 353 2603 823 3093 
Q 1294 3584 2113 3584 
Q 2378 3584 2631 3529 
Q 2884 3475 3122 3366 
z
" id="DejaVuSans-63" transform="scale(0.015625)"/>
       <path d="M 2194 1759 
Q 1497 1759 1228 1600 
Q 959 1441 959 1056 
Q 959 750 1161 570 
Q 1363 391 1709 391 
Q 2188 391 2477 730 
Q 2766 1069 2766 1631 
L 2766 1759 
L 2194 1759 
z
M 3341 1997 
L 3341 0 
L 2766 0 
L 2766 531 
Q 2569 213 2275 61 
Q 1981 -91 1556 -91 
Q 1019 -91 701 211 
Q 384 513 384 1019 
Q 384 1609 779 1909 
Q 1175 2209 1959 2209 
L 2766 2209 
L 2766 2266 
Q 2766 2663 2505 2880 
Q 2244 3097 1772 3097 
Q 1472 3097 1187 3025 
Q 903 2953 641 2809 
L 641 3341 
Q 956 3463 1253 3523 
Q 1550 3584 1831 3584 
Q 2591 3584 2966 3190 
Q 3341 2797 3341 1997 
z
" id="DejaVuSans-61" transform="scale(0.015625)"/>
       <path d="M 3513 2113 
L 3513 0 
L 2938 0 
L 2938 2094 
Q 2938 2591 2744 2837 
Q 2550 3084 2163 3084 
Q 1697 3084 1428 2787 
Q 1159 2491 1159 1978 
L 1159 0 
L 581 0 
L 581 3500 
L 1159 3500 
L 1159 2956 
Q 1366 3272 1645 3428 
Q 1925 3584 2291 3584 
Q 2894 3584 3203 3211 
Q 3513 2838 3513 2113 
z
" id="DejaVuSans-6e" transform="scale(0.015625)"/>
       <path d="M 2906 2969 
L 2906 4863 
L 3481 4863 
L 3481 0 
L 2906 0 
L 2906 525 
Q 2725 213 2448 61 
Q 2172 -91 1784 -91 
Q 1150 -91 751 415 
Q 353 922 353 1747 
Q 353 2572 751 3078 
Q 1150 3584 1784 3584 
Q 2172 3584 2448 3432 
Q 2725 3281 2906 2969 
z
M 947 1747 
Q 947 1113 1208 752 
Q 1469 391 1925 391 
Q 2381 391 2643 752 
Q 2906 1113 2906 1747 
Q 2906 2381 2643 2742 
Q 2381 3103 1925 3103 
Q 1469 3103 1208 2742 
Q 947 2381 947 1747 
z
" id="DejaVuSans-64" transform="scale(0.015625)"/>
      </defs>
      <use xlink:href="#DejaVuSans-52"/>
      <use x="64.982422" xlink:href="#DejaVuSans-65"/>
      <use x="126.505859" xlink:href="#DejaVuSans-70"/>
      <use x="189.982422" xlink:href="#DejaVuSans-6f"/>
      <use x="251.164062" xlink:href="#DejaVuSans-73"/>
      <use x="303.263672" xlink:href="#DejaVuSans-69"/>
      <use x="331.046875" xlink:href="#DejaVuSans-74"/>
      <use x="370.255859" xlink:href="#DejaVuSans-6f"/>
      <use x="431.4375" xlink:href="#DejaVuSans-72"/>
      <use x="472.550781" xlink:href="#DejaVuSans-79"/>
      <use x="531.730469" xlink:href="#DejaVuSans-20"/>
      <use x="563.517578" xlink:href="#DejaVuSans-63"/>
      <use x="618.498047" xlink:href="#DejaVuSans-72"/>
      <use x="657.361328" xlink:href="#DejaVuSans-65"/>
      <use x="718.884766" xlink:href="#DejaVuSans-61"/>
      <use x="780.164062" xlink:href="#DejaVuSans-74"/>
      <use x="819.373047" xlink:href="#DejaVuSans-69"/>
      <use x="847.15625" xlink:href="#DejaVuSans-6f"/>
      <use x="908.337891" xlink:href="#DejaVuSans-6e"/>
      <use x="971.716797" xlink:href="#DejaVuSans-20"/>
      <use x="1003.503906" xlink:href="#DejaVuSans-64"/>
      <use x="1066.980469" xlink:href="#DejaVuSans-61"/>
      <use x="1128.259766" xlink:href="#DejaVuSans-74"/>
      <use x="1167.46875" xlink:href="#DejaVuSans-65"/>
     </g>
    </g>
   </g>
   <g id="matplotlib.axis_2">
    <g id="ytick_1">
     <g id="line2d_12">
      <defs>
       <path d="M 0 0 
L -3.5 0 
" id="m9c8e2d3cee" style="stroke:#000000;stroke-width:0.8;"/>
      </defs>
      <g>
       <use style="stroke:#000000;stroke-width:0.8;" x="90" xlink:href="#m9c8e2d3cee" y="345.6"/>
      </g>
     </g>
     <g id="text_13">
      <!-- 0 -->
      <g transform="translate(76.6375 349.399219)scale(0.1 -0.1)">
       <use xlink:href="#DejaVuSans-30"/>
      </g>
     </g>
    </g>
    <g id="ytick_2">
     <g id="line2d_13">
      <g>
       <use style="stroke:#000000;stroke-width:0.8;" x="90" xlink:href="#m9c8e2d3cee" y="308.88"/>
      </g>
     </g>
     <g id="text_14">
      <!-- 50 -->
      <g transform="translate(70.275 312.679219)scale(0.1 -0.1)">
       <use xlink:href="#DejaVuSans-35"/>
       <use x="63.623047" xlink:href="#DejaVuSans-30"/>
      </g>
     </g>
    </g>
    <g id="ytick_3">
     <g id="line2d_14">
      <g>
       <use style="stroke:#000000;stroke-width:0.8;" x="90" xlink:href="#m9c8e2d3cee" y="272.16"/>
      </g>
     </g>
     <g id="text_15">
      <!-- 100 -->
      <g transform="translate(63.9125 275.959219)scale(0.1 -0.1)">
       <use xlink:href="#DejaVuSans-31"/>
       <use x="63.623047" xlink:href="#DejaVuSans-30"/>
       <use x="127.246094" xlink:href="#DejaVuSans-30"/>
      </g>
     </g>
    </g>
    <g id="ytick_4">
     <g id="line2d_15">
      <g>
       <use style="stroke:#000000;stroke-width:0.8;" x="90" xlink:href="#m9c8e2d3cee" y="235.44"/>
      </g>
     </g>
     <g id="text_16">
      <!-- 150 -->
      <g transform="translate(63.9125 239.239219)scale(0.1 -0.1)">
       <use xlink:href="#DejaVuSans-31"/>
       <use x="63.623047" xlink:href="#DejaVuSans-35"/>
       <use x="127.246094" xlink:href="#DejaVuSans-30"/>
      </g>
     </g>
    </g>
    <g id="ytick_5">
     <g id="line2d_16">
      <g>
       <use style="stroke:#000000;stroke-width:0.8;" x="90" xlink:href="#m9c8e2d3cee" y="198.72"/>
      </g>
     </g>
     <g id="text_17">
      <!-- 200 -->
      <g transform="translate(63.9125 202.519219)scale(0.1 -0.1)">
       <use xlink:href="#DejaVuSans-32"/>
       <use x="63.623047" xlink:href="#DejaVuSans-30"/>
       <use x="127.246094" xlink:href="#DejaVuSans-30"/>
      </g>
     </g>
    </g>
    <g id="ytick_6">
     <g id="line2d_17">
      <g>
       <use style="stroke:#000000;stroke-width:0.8;" x="90" xlink:href="#m9c8e2d3cee" y="162"/>
      </g>
     </g>
     <g id="text_18">
      <!-- 250 -->
      <g transform="translate(63.9125 165.799219)scale(0.1 -0.1)">
       <use xlink:href="#DejaVuSans-32"/>
       <use x="63.623047" xlink:href="#DejaVuSans-35"/>
       <use x="127.246094" xlink:href="#DejaVuSans-30"/>
      </g>
     </g>
    </g>
    <g id="ytick_7">
     <g id="line2d_18">
      <g>
       <use style="stroke:#000000;stroke-width:0.8;" x="90" xlink:href="#m9c8e2d3cee" y="125.28"/>
      </g>
     </g>
     <g id="text_19">
      <!-- 300 -->
      <g transform="translate(63.9125 129.079219)scale(0.1 -0.1)">
       <use xlink:href="#DejaVuSans-33"/>
       <use x="63.623047" xlink:href="#DejaVuSans-30"/>
       <use x="127.246094" xlink:href="#DejaVuSans-30"/>
      </g>
     </g>
    </g>
    <g id="ytick_8">
     <g id="line2d_19">
      <g>
       <use style="stroke:#000000;stroke-width:0.8;" x="90" xlink:href="#m9c8e2d3cee" y="88.56"/>
      </g>
     </g>
     <g id="text_20">
      <!-- 350 -->
      <g transform="translate(63.9125 92.359219)scale(0.1 -0.1)">
       <use xlink:href="#DejaVuSans-33"/>
       <use x="63.623047" xlink:href="#DejaVuSans-35"/>
       <use x="127.246094" xlink:href="#DejaVuSans-30"/>
      </g>
     </g>
    </g>
    <g id="ytick_9">
     <g id="line2d_20">
      <g>
       <use style="stroke:#000000;stroke-width:0.8;" x="90" xlink:href="#m9c8e2d3cee" y="51.84"/>
      </g>
     </g>
     <g id="text_21">
      <!-- 400 -->
      <g transform="translate(63.9125 55.639219)scale(0.1 -0.1)">
       <use xlink:href="#DejaVuSans-34"/>
       <use x="63.623047" xlink:href="#DejaVuSans-30"/>
       <use x="127.246094" xlink:href="#DejaVuSans-30"/>
      </g>
     </g>
    </g>
    <g id="text_22">
     <!-- Repositories created by CMS physicists per 90 days -->
     <g transform="translate(57.832812 327.773906)rotate(-90)scale(0.1 -0.1)">
      <defs>
       <path d="M 3116 1747 
Q 3116 2381 2855 2742 
Q 2594 3103 2138 3103 
Q 1681 3103 1420 2742 
Q 1159 2381 1159 1747 
Q 1159 1113 1420 752 
Q 1681 391 2138 391 
Q 2594 391 2855 752 
Q 3116 1113 3116 1747 
z
M 1159 2969 
Q 1341 3281 1617 3432 
Q 1894 3584 2278 3584 
Q 2916 3584 3314 3078 
Q 3713 2572 3713 1747 
Q 3713 922 3314 415 
Q 2916 -91 2278 -91 
Q 1894 -91 1617 61 
Q 1341 213 1159 525 
L 1159 0 
L 581 0 
L 581 4863 
L 1159 4863 
L 1159 2969 
z
" id="DejaVuSans-62" transform="scale(0.015625)"/>
       <path d="M 4122 4306 
L 4122 3641 
Q 3803 3938 3442 4084 
Q 3081 4231 2675 4231 
Q 1875 4231 1450 3742 
Q 1025 3253 1025 2328 
Q 1025 1406 1450 917 
Q 1875 428 2675 428 
Q 3081 428 3442 575 
Q 3803 722 4122 1019 
L 4122 359 
Q 3791 134 3420 21 
Q 3050 -91 2638 -91 
Q 1578 -91 968 557 
Q 359 1206 359 2328 
Q 359 3453 968 4101 
Q 1578 4750 2638 4750 
Q 3056 4750 3426 4639 
Q 3797 4528 4122 4306 
z
" id="DejaVuSans-43" transform="scale(0.015625)"/>
       <path d="M 628 4666 
L 1569 4666 
L 2759 1491 
L 3956 4666 
L 4897 4666 
L 4897 0 
L 4281 0 
L 4281 4097 
L 3078 897 
L 2444 897 
L 1241 4097 
L 1241 0 
L 628 0 
L 628 4666 
z
" id="DejaVuSans-4d" transform="scale(0.015625)"/>
       <path d="M 3425 4513 
L 3425 3897 
Q 3066 4069 2747 4153 
Q 2428 4238 2131 4238 
Q 1616 4238 1336 4038 
Q 1056 3838 1056 3469 
Q 1056 3159 1242 3001 
Q 1428 2844 1947 2747 
L 2328 2669 
Q 3034 2534 3370 2195 
Q 3706 1856 3706 1288 
Q 3706 609 3251 259 
Q 2797 -91 1919 -91 
Q 1588 -91 1214 -16 
Q 841 59 441 206 
L 441 856 
Q 825 641 1194 531 
Q 1563 422 1919 422 
Q 2459 422 2753 634 
Q 3047 847 3047 1241 
Q 3047 1584 2836 1778 
Q 2625 1972 2144 2069 
L 1759 2144 
Q 1053 2284 737 2584 
Q 422 2884 422 3419 
Q 422 4038 858 4394 
Q 1294 4750 2059 4750 
Q 2388 4750 2728 4690 
Q 3069 4631 3425 4513 
z
" id="DejaVuSans-53" transform="scale(0.015625)"/>
       <path d="M 3513 2113 
L 3513 0 
L 2938 0 
L 2938 2094 
Q 2938 2591 2744 2837 
Q 2550 3084 2163 3084 
Q 1697 3084 1428 2787 
Q 1159 2491 1159 1978 
L 1159 0 
L 581 0 
L 581 4863 
L 1159 4863 
L 1159 2956 
Q 1366 3272 1645 3428 
Q 1925 3584 2291 3584 
Q 2894 3584 3203 3211 
Q 3513 2838 3513 2113 
z
" id="DejaVuSans-68" transform="scale(0.015625)"/>
      </defs>
      <use xlink:href="#DejaVuSans-52"/>
      <use x="64.982422" xlink:href="#DejaVuSans-65"/>
      <use x="126.505859" xlink:href="#DejaVuSans-70"/>
      <use x="189.982422" xlink:href="#DejaVuSans-6f"/>
      <use x="251.164062" xlink:href="#DejaVuSans-73"/>
      <use x="303.263672" xlink:href="#DejaVuSans-69"/>
      <use x="331.046875" xlink:href="#DejaVuSans-74"/>
      <use x="370.255859" xlink:href="#DejaVuSans-6f"/>
      <use x="431.4375" xlink:href="#DejaVuSans-72"/>
      <use x="472.550781" xlink:href="#DejaVuSans-69"/>
      <use x="500.333984" xlink:href="#DejaVuSans-65"/>
      <use x="561.857422" xlink:href="#DejaVuSans-73"/>
      <use x="613.957031" xlink:href="#DejaVuSans-20"/>
      <use x="645.744141" xlink:href="#DejaVuSans-63"/>
      <use x="700.724609" xlink:href="#DejaVuSans-72"/>
      <use x="739.587891" xlink:href="#DejaVuSans-65"/>
      <use x="801.111328" xlink:href="#DejaVuSans-61"/>
      <use x="862.390625" xlink:href="#DejaVuSans-74"/>
      <use x="901.599609" xlink:href="#DejaVuSans-65"/>
      <use x="963.123047" xlink:href="#DejaVuSans-64"/>
      <use x="1026.599609" xlink:href="#DejaVuSans-20"/>
      <use x="1058.386719" xlink:href="#DejaVuSans-62"/>
      <use x="1121.863281" xlink:href="#DejaVuSans-79"/>
      <use x="1181.042969" xlink:href="#DejaVuSans-20"/>
      <use x="1212.830078" xlink:href="#DejaVuSans-43"/>
      <use x="1282.654297" xlink:href="#DejaVuSans-4d"/>
      <use x="1368.933594" xlink:href="#DejaVuSans-53"/>
      <use x="1432.410156" xlink:href="#DejaVuSans-20"/>
      <use x="1464.197266" xlink:href="#DejaVuSans-70"/>
      <use x="1527.673828" xlink:href="#DejaVuSans-68"/>
      <use x="1591.052734" xlink:href="#DejaVuSans-79"/>
      <use x="1650.232422" xlink:href="#DejaVuSans-73"/>
      <use x="1702.332031" xlink:href="#DejaVuSans-69"/>
      <use x="1730.115234" xlink:href="#DejaVuSans-63"/>
      <use x="1785.095703" xlink:href="#DejaVuSans-69"/>
      <use x="1812.878906" xlink:href="#DejaVuSans-73"/>
      <use x="1864.978516" xlink:href="#DejaVuSans-74"/>
      <use x="1904.1875" xlink:href="#DejaVuSans-73"/>
      <use x="1956.287109" xlink:href="#DejaVuSans-20"/>
      <use x="1988.074219" xlink:href="#DejaVuSans-70"/>
      <use x="2051.550781" xlink:href="#DejaVuSans-65"/>
      <use x="2113.074219" xlink:href="#DejaVuSans-72"/>
      <use x="2154.1875" xlink:href="#DejaVuSans-20"/>
      <use x="2185.974609" xlink:href="#DejaVuSans-39"/>
      <use x="2249.597656" xlink:href="#DejaVuSans-30"/>
      <use x="2313.220703" xlink:href="#DejaVuSans-20"/>
      <use x="2345.007812" xlink:href="#DejaVuSans-64"/>
      <use x="2408.484375" xlink:href="#DejaVuSans-61"/>
      <use x="2469.763672" xlink:href="#DejaVuSans-79"/>
      <use x="2528.943359" xlink:href="#DejaVuSans-73"/>
     </g>
    </g>
   </g>
   <g id="LineCollection_1">
    <path clip-path="url(#p7bb392c0d8)" d="M 7.397517 345.6 
L 7.397517 345.6 
" style="fill:none;stroke:#1f77b4;stroke-width:1.5;"/>
    <path clip-path="url(#p7bb392c0d8)" d="M 20.251369 345.6 
L 20.251369 345.6 
" style="fill:none;stroke:#1f77b4;stroke-width:1.5;"/>
    <path clip-path="url(#p7bb392c0d8)" d="M 33.105221 345.6 
L 33.105221 345.6 
" style="fill:none;stroke:#1f77b4;stroke-width:1.5;"/>
    <path clip-path="url(#p7bb392c0d8)" d="M 45.959073 345.6 
L 45.959073 345.6 
" style="fill:none;stroke:#1f77b4;stroke-width:1.5;"/>
    <path clip-path="url(#p7bb392c0d8)" d="M 58.812925 345.6 
L 58.812925 344.1312 
" style="fill:none;stroke:#1f77b4;stroke-width:1.5;"/>
    <path clip-path="url(#p7bb392c0d8)" d="M 71.666777 345.6 
L 71.666777 345.6 
" style="fill:none;stroke:#1f77b4;stroke-width:1.5;"/>
    <path clip-path="url(#p7bb392c0d8)" d="M 84.520629 345.6 
L 84.520629 344.1312 
" style="fill:none;stroke:#1f77b4;stroke-width:1.5;"/>
    <path clip-path="url(#p7bb392c0d8)" d="M 97.374481 345.6 
L 97.374481 345.6 
" style="fill:none;stroke:#1f77b4;stroke-width:1.5;"/>
    <path clip-path="url(#p7bb392c0d8)" d="M 110.228333 345.6 
L 110.228333 345.6 
" style="fill:none;stroke:#1f77b4;stroke-width:1.5;"/>
    <path clip-path="url(#p7bb392c0d8)" d="M 123.082185 344.1312 
L 123.082185 341.1936 
" style="fill:none;stroke:#1f77b4;stroke-width:1.5;"/>
    <path clip-path="url(#p7bb392c0d8)" d="M 135.936037 344.1312 
L 135.936037 341.1936 
" style="fill:none;stroke:#1f77b4;stroke-width:1.5;"/>
    <path clip-path="url(#p7bb392c0d8)" d="M 148.789889 344.668818 
L 148.789889 342.124782 
" style="fill:none;stroke:#1f77b4;stroke-width:1.5;"/>
    <path clip-path="url(#p7bb392c0d8)" d="M 161.643741 345.6 
L 161.643741 344.1312 
" style="fill:none;stroke:#1f77b4;stroke-width:1.5;"/>
    <path clip-path="url(#p7bb392c0d8)" d="M 174.497593 345.6 
L 174.497593 344.1312 
" style="fill:none;stroke:#1f77b4;stroke-width:1.5;"/>
    <path clip-path="url(#p7bb392c0d8)" d="M 187.351445 342.992505 
L 187.351445 339.394695 
" style="fill:none;stroke:#1f77b4;stroke-width:1.5;"/>
    <path clip-path="url(#p7bb392c0d8)" d="M 200.205298 344.668818 
L 200.205298 342.124782 
" style="fill:none;stroke:#1f77b4;stroke-width:1.5;"/>
    <path clip-path="url(#p7bb392c0d8)" d="M 213.05915 344.1312 
L 213.05915 341.1936 
" style="fill:none;stroke:#1f77b4;stroke-width:1.5;"/>
    <path clip-path="url(#p7bb392c0d8)" d="M 225.913002 343.570168 
L 225.913002 340.285832 
" style="fill:none;stroke:#1f77b4;stroke-width:1.5;"/>
    <path clip-path="url(#p7bb392c0d8)" d="M 238.766854 288.557227 
L 238.766854 274.857173 
" style="fill:none;stroke:#1f77b4;stroke-width:1.5;"/>
    <path clip-path="url(#p7bb392c0d8)" d="M 251.620706 160.803446 
L 251.620706 136.758154 
" style="fill:none;stroke:#1f77b4;stroke-width:1.5;"/>
    <path clip-path="url(#p7bb392c0d8)" d="M 264.474558 264.816 
L 264.474558 248.6592 
" style="fill:none;stroke:#1f77b4;stroke-width:1.5;"/>
    <path clip-path="url(#p7bb392c0d8)" d="M 277.32841 225.381757 
L 277.32841 205.840643 
" style="fill:none;stroke:#1f77b4;stroke-width:1.5;"/>
    <path clip-path="url(#p7bb392c0d8)" d="M 290.182262 247.955347 
L 290.182262 230.268653 
" style="fill:none;stroke:#1f77b4;stroke-width:1.5;"/>
    <path clip-path="url(#p7bb392c0d8)" d="M 303.036114 235.974586 
L 303.036114 217.279814 
" style="fill:none;stroke:#1f77b4;stroke-width:1.5;"/>
    <path clip-path="url(#p7bb392c0d8)" d="M 315.889966 247.955347 
L 315.889966 230.268653 
" style="fill:none;stroke:#1f77b4;stroke-width:1.5;"/>
    <path clip-path="url(#p7bb392c0d8)" d="M 328.743818 211.9392 
L 328.743818 191.376 
" style="fill:none;stroke:#1f77b4;stroke-width:1.5;"/>
    <path clip-path="url(#p7bb392c0d8)" d="M 341.59767 223.26101 
L 341.59767 203.55499 
" style="fill:none;stroke:#1f77b4;stroke-width:1.5;"/>
    <path clip-path="url(#p7bb392c0d8)" d="M 354.451522 247.251389 
L 354.451522 229.503811 
" style="fill:none;stroke:#1f77b4;stroke-width:1.5;"/>
    <path clip-path="url(#p7bb392c0d8)" d="M 367.305374 225.381757 
L 367.305374 205.840643 
" style="fill:none;stroke:#1f77b4;stroke-width:1.5;"/>
    <path clip-path="url(#p7bb392c0d8)" d="M 380.159226 249.362947 
L 380.159226 231.798653 
" style="fill:none;stroke:#1f77b4;stroke-width:1.5;"/>
    <path clip-path="url(#p7bb392c0d8)" d="M 393.013078 221.139579 
L 393.013078 201.270021 
" style="fill:none;stroke:#1f77b4;stroke-width:1.5;"/>
    <path clip-path="url(#p7bb392c0d8)" d="M 405.866931 258.501448 
L 405.866931 241.754552 
" style="fill:none;stroke:#1f77b4;stroke-width:1.5;"/>
    <path clip-path="url(#p7bb392c0d8)" d="M 418.720783 239.501206 
L 418.720783 221.097194 
" style="fill:none;stroke:#1f77b4;stroke-width:1.5;"/>
    <path clip-path="url(#p7bb392c0d8)" d="M 431.574635 247.955347 
L 431.574635 230.268653 
" style="fill:none;stroke:#1f77b4;stroke-width:1.5;"/>
    <path clip-path="url(#p7bb392c0d8)" d="M 444.428487 226.795199 
L 444.428487 207.364801 
" style="fill:none;stroke:#1f77b4;stroke-width:1.5;"/>
    <path clip-path="url(#p7bb392c0d8)" d="M 457.282339 222.553942 
L 457.282339 202.793258 
" style="fill:none;stroke:#1f77b4;stroke-width:1.5;"/>
    <path clip-path="url(#p7bb392c0d8)" d="M 470.136191 231.739712 
L 470.136191 212.701888 
" style="fill:none;stroke:#1f77b4;stroke-width:1.5;"/>
    <path clip-path="url(#p7bb392c0d8)" d="M 482.990043 254.286102 
L 482.990043 237.157098 
" style="fill:none;stroke:#1f77b4;stroke-width:1.5;"/>
    <path clip-path="url(#p7bb392c0d8)" d="M 495.843895 238.090832 
L 495.843895 219.569968 
" style="fill:none;stroke:#1f77b4;stroke-width:1.5;"/>
    <path clip-path="url(#p7bb392c0d8)" d="M 508.697747 228.208324 
L 508.697747 208.889276 
" style="fill:none;stroke:#1f77b4;stroke-width:1.5;"/>
    <path clip-path="url(#p7bb392c0d8)" d="M 521.551599 242.320826 
L 521.551599 224.152774 
" style="fill:none;stroke:#1f77b4;stroke-width:1.5;"/>
    <path clip-path="url(#p7bb392c0d8)" d="M 534.405451 269.019563 
L 534.405451 253.268437 
" style="fill:none;stroke:#1f77b4;stroke-width:1.5;"/>
    <path clip-path="url(#p7bb392c0d8)" d="M 547.259303 240.911206 
L 547.259303 222.624794 
" style="fill:none;stroke:#1f77b4;stroke-width:1.5;"/>
    <path clip-path="url(#p7bb392c0d8)" d="M 560.113155 237.385507 
L 560.113155 218.806493 
" style="fill:none;stroke:#1f77b4;stroke-width:1.5;"/>
    <path clip-path="url(#p7bb392c0d8)" d="M 572.967007 247.955347 
L 572.967007 230.268653 
" style="fill:none;stroke:#1f77b4;stroke-width:1.5;"/>
    <path clip-path="url(#p7bb392c0d8)" d="M 585.820859 262.010842 
L 585.820859 245.589158 
" style="fill:none;stroke:#1f77b4;stroke-width:1.5;"/>
    <path clip-path="url(#p7bb392c0d8)" d="M 598.674711 262.712332 
L 598.674711 246.356468 
" style="fill:none;stroke:#1f77b4;stroke-width:1.5;"/>
    <path clip-path="url(#p7bb392c0d8)" d="M 611.528563 256.394314 
L 611.528563 239.455286 
" style="fill:none;stroke:#1f77b4;stroke-width:1.5;"/>
    <path clip-path="url(#p7bb392c0d8)" d="M 624.382416 247.251389 
L 624.382416 229.503811 
" style="fill:none;stroke:#1f77b4;stroke-width:1.5;"/>
    <path clip-path="url(#p7bb392c0d8)" d="M 637.236268 273.217761 
L 637.236268 257.883039 
" style="fill:none;stroke:#1f77b4;stroke-width:1.5;"/>
    <path clip-path="url(#p7bb392c0d8)" d="M 650.09012 345.6 
L 650.09012 345.6 
" style="fill:none;stroke:#1f77b4;stroke-width:1.5;"/>
   </g>
   <g id="LineCollection_2">
    <path clip-path="url(#p7bb392c0d8)" d="M 7.397517 345.6 
L 7.397517 345.6 
" style="fill:none;stroke:#ff7f0e;stroke-width:1.5;"/>
    <path clip-path="url(#p7bb392c0d8)" d="M 20.251369 345.6 
L 20.251369 345.6 
" style="fill:none;stroke:#ff7f0e;stroke-width:1.5;"/>
    <path clip-path="url(#p7bb392c0d8)" d="M 33.105221 345.6 
L 33.105221 345.6 
" style="fill:none;stroke:#ff7f0e;stroke-width:1.5;"/>
    <path clip-path="url(#p7bb392c0d8)" d="M 45.959073 345.6 
L 45.959073 345.6 
" style="fill:none;stroke:#ff7f0e;stroke-width:1.5;"/>
    <path clip-path="url(#p7bb392c0d8)" d="M 58.812925 345.6 
L 58.812925 344.1312 
" style="fill:none;stroke:#ff7f0e;stroke-width:1.5;"/>
    <path clip-path="url(#p7bb392c0d8)" d="M 71.666777 345.6 
L 71.666777 345.6 
" style="fill:none;stroke:#ff7f0e;stroke-width:1.5;"/>
    <path clip-path="url(#p7bb392c0d8)" d="M 84.520629 345.6 
L 84.520629 345.6 
" style="fill:none;stroke:#ff7f0e;stroke-width:1.5;"/>
    <path clip-path="url(#p7bb392c0d8)" d="M 97.374481 345.6 
L 97.374481 345.6 
" style="fill:none;stroke:#ff7f0e;stroke-width:1.5;"/>
    <path clip-path="url(#p7bb392c0d8)" d="M 110.228333 345.6 
L 110.228333 345.6 
" style="fill:none;stroke:#ff7f0e;stroke-width:1.5;"/>
    <path clip-path="url(#p7bb392c0d8)" d="M 123.082185 345.169798 
L 123.082185 343.092602 
" style="fill:none;stroke:#ff7f0e;stroke-width:1.5;"/>
    <path clip-path="url(#p7bb392c0d8)" d="M 135.936037 345.6 
L 135.936037 345.6 
" style="fill:none;stroke:#ff7f0e;stroke-width:1.5;"/>
    <path clip-path="url(#p7bb392c0d8)" d="M 148.789889 344.668818 
L 148.789889 342.124782 
" style="fill:none;stroke:#ff7f0e;stroke-width:1.5;"/>
    <path clip-path="url(#p7bb392c0d8)" d="M 161.643741 345.6 
L 161.643741 344.1312 
" style="fill:none;stroke:#ff7f0e;stroke-width:1.5;"/>
    <path clip-path="url(#p7bb392c0d8)" d="M 174.497593 344.668818 
L 174.497593 342.124782 
" style="fill:none;stroke:#ff7f0e;stroke-width:1.5;"/>
    <path clip-path="url(#p7bb392c0d8)" d="M 187.351445 342.992505 
L 187.351445 339.394695 
" style="fill:none;stroke:#ff7f0e;stroke-width:1.5;"/>
    <path clip-path="url(#p7bb392c0d8)" d="M 200.205298 342.40224 
L 200.205298 338.51616 
" style="fill:none;stroke:#ff7f0e;stroke-width:1.5;"/>
    <path clip-path="url(#p7bb392c0d8)" d="M 213.05915 344.668818 
L 213.05915 342.124782 
" style="fill:none;stroke:#ff7f0e;stroke-width:1.5;"/>
    <path clip-path="url(#p7bb392c0d8)" d="M 225.913002 340.578377 
L 225.913002 335.933623 
" style="fill:none;stroke:#ff7f0e;stroke-width:1.5;"/>
    <path clip-path="url(#p7bb392c0d8)" d="M 238.766854 321.544727 
L 238.766854 312.372073 
" style="fill:none;stroke:#ff7f0e;stroke-width:1.5;"/>
    <path clip-path="url(#p7bb392c0d8)" d="M 251.620706 294.802845 
L 251.620706 281.830755 
" style="fill:none;stroke:#ff7f0e;stroke-width:1.5;"/>
    <path clip-path="url(#p7bb392c0d8)" d="M 264.474558 299.645764 
L 264.474558 287.269436 
" style="fill:none;stroke:#ff7f0e;stroke-width:1.5;"/>
    <path clip-path="url(#p7bb392c0d8)" d="M 277.32841 295.495534 
L 277.32841 282.606866 
" style="fill:none;stroke:#ff7f0e;stroke-width:1.5;"/>
    <path clip-path="url(#p7bb392c0d8)" d="M 290.182262 311.339116 
L 290.182262 300.545684 
" style="fill:none;stroke:#ff7f0e;stroke-width:1.5;"/>
    <path clip-path="url(#p7bb392c0d8)" d="M 303.036114 299.645764 
L 303.036114 287.269436 
" style="fill:none;stroke:#ff7f0e;stroke-width:1.5;"/>
    <path clip-path="url(#p7bb392c0d8)" d="M 315.889966 299.645764 
L 315.889966 287.269436 
" style="fill:none;stroke:#ff7f0e;stroke-width:1.5;"/>
    <path clip-path="url(#p7bb392c0d8)" d="M 328.743818 272.518452 
L 328.743818 257.113548 
" style="fill:none;stroke:#ff7f0e;stroke-width:1.5;"/>
    <path clip-path="url(#p7bb392c0d8)" d="M 341.59767 267.618951 
L 341.59767 251.731449 
" style="fill:none;stroke:#ff7f0e;stroke-width:1.5;"/>
    <path clip-path="url(#p7bb392c0d8)" d="M 354.451522 296.187951 
L 354.451522 283.383249 
" style="fill:none;stroke:#ff7f0e;stroke-width:1.5;"/>
    <path clip-path="url(#p7bb392c0d8)" d="M 367.305374 279.504 
L 367.305374 264.816 
" style="fill:none;stroke:#ff7f0e;stroke-width:1.5;"/>
    <path clip-path="url(#p7bb392c0d8)" d="M 380.159226 291.335502 
L 380.159226 277.954098 
" style="fill:none;stroke:#ff7f0e;stroke-width:1.5;"/>
    <path clip-path="url(#p7bb392c0d8)" d="M 393.013078 273.217761 
L 393.013078 257.883039 
" style="fill:none;stroke:#ff7f0e;stroke-width:1.5;"/>
    <path clip-path="url(#p7bb392c0d8)" d="M 405.866931 276.013361 
L 405.866931 260.962639 
" style="fill:none;stroke:#ff7f0e;stroke-width:1.5;"/>
    <path clip-path="url(#p7bb392c0d8)" d="M 418.720783 284.383097 
L 418.720783 270.218503 
" style="fill:none;stroke:#ff7f0e;stroke-width:1.5;"/>
    <path clip-path="url(#p7bb392c0d8)" d="M 431.574635 283.686672 
L 431.574635 269.446128 
" style="fill:none;stroke:#ff7f0e;stroke-width:1.5;"/>
    <path clip-path="url(#p7bb392c0d8)" d="M 444.428487 262.010842 
L 444.428487 245.589158 
" style="fill:none;stroke:#ff7f0e;stroke-width:1.5;"/>
    <path clip-path="url(#p7bb392c0d8)" d="M 457.282339 264.114913 
L 457.282339 247.891487 
" style="fill:none;stroke:#ff7f0e;stroke-width:1.5;"/>
    <path clip-path="url(#p7bb392c0d8)" d="M 470.136191 225.381757 
L 470.136191 205.840643 
" style="fill:none;stroke:#ff7f0e;stroke-width:1.5;"/>
    <path clip-path="url(#p7bb392c0d8)" d="M 482.990043 262.712332 
L 482.990043 246.356468 
" style="fill:none;stroke:#ff7f0e;stroke-width:1.5;"/>
    <path clip-path="url(#p7bb392c0d8)" d="M 495.843895 250.066586 
L 495.843895 232.563814 
" style="fill:none;stroke:#ff7f0e;stroke-width:1.5;"/>
    <path clip-path="url(#p7bb392c0d8)" d="M 508.697747 256.394314 
L 508.697747 239.455286 
" style="fill:none;stroke:#ff7f0e;stroke-width:1.5;"/>
    <path clip-path="url(#p7bb392c0d8)" d="M 521.551599 244.434526 
L 521.551599 226.445474 
" style="fill:none;stroke:#ff7f0e;stroke-width:1.5;"/>
    <path clip-path="url(#p7bb392c0d8)" d="M 534.405451 245.138894 
L 534.405451 227.209906 
" style="fill:none;stroke:#ff7f0e;stroke-width:1.5;"/>
    <path clip-path="url(#p7bb392c0d8)" d="M 547.259303 257.799192 
L 547.259303 240.988008 
" style="fill:none;stroke:#ff7f0e;stroke-width:1.5;"/>
    <path clip-path="url(#p7bb392c0d8)" d="M 560.113155 240.206253 
L 560.113155 221.860947 
" style="fill:none;stroke:#ff7f0e;stroke-width:1.5;"/>
    <path clip-path="url(#p7bb392c0d8)" d="M 572.967007 235.268992 
L 572.967007 216.516608 
" style="fill:none;stroke:#ff7f0e;stroke-width:1.5;"/>
    <path clip-path="url(#p7bb392c0d8)" d="M 585.820859 261.30922 
L 585.820859 244.82198 
" style="fill:none;stroke:#ff7f0e;stroke-width:1.5;"/>
    <path clip-path="url(#p7bb392c0d8)" d="M 598.674711 215.47921 
L 598.674711 195.17999 
" style="fill:none;stroke:#ff7f0e;stroke-width:1.5;"/>
    <path clip-path="url(#p7bb392c0d8)" d="M 611.528563 240.206253 
L 611.528563 221.860947 
" style="fill:none;stroke:#ff7f0e;stroke-width:1.5;"/>
    <path clip-path="url(#p7bb392c0d8)" d="M 624.382416 209.814387 
L 624.382416 189.094413 
" style="fill:none;stroke:#ff7f0e;stroke-width:1.5;"/>
    <path clip-path="url(#p7bb392c0d8)" d="M 637.236268 226.795199 
L 637.236268 207.364801 
" style="fill:none;stroke:#ff7f0e;stroke-width:1.5;"/>
    <path clip-path="url(#p7bb392c0d8)" d="M 650.09012 345.6 
L 650.09012 345.6 
" style="fill:none;stroke:#ff7f0e;stroke-width:1.5;"/>
   </g>
   <g id="LineCollection_3">
    <path clip-path="url(#p7bb392c0d8)" d="M 7.397517 345.6 
L 7.397517 345.6 
" style="fill:none;stroke:#2ca02c;stroke-width:1.5;"/>
    <path clip-path="url(#p7bb392c0d8)" d="M 20.251369 345.6 
L 20.251369 345.6 
" style="fill:none;stroke:#2ca02c;stroke-width:1.5;"/>
    <path clip-path="url(#p7bb392c0d8)" d="M 33.105221 345.6 
L 33.105221 345.6 
" style="fill:none;stroke:#2ca02c;stroke-width:1.5;"/>
    <path clip-path="url(#p7bb392c0d8)" d="M 45.959073 345.6 
L 45.959073 345.6 
" style="fill:none;stroke:#2ca02c;stroke-width:1.5;"/>
    <path clip-path="url(#p7bb392c0d8)" d="M 58.812925 345.6 
L 58.812925 345.6 
" style="fill:none;stroke:#2ca02c;stroke-width:1.5;"/>
    <path clip-path="url(#p7bb392c0d8)" d="M 71.666777 345.6 
L 71.666777 345.6 
" style="fill:none;stroke:#2ca02c;stroke-width:1.5;"/>
    <path clip-path="url(#p7bb392c0d8)" d="M 84.520629 345.6 
L 84.520629 345.6 
" style="fill:none;stroke:#2ca02c;stroke-width:1.5;"/>
    <path clip-path="url(#p7bb392c0d8)" d="M 97.374481 345.6 
L 97.374481 345.6 
" style="fill:none;stroke:#2ca02c;stroke-width:1.5;"/>
    <path clip-path="url(#p7bb392c0d8)" d="M 110.228333 345.6 
L 110.228333 345.6 
" style="fill:none;stroke:#2ca02c;stroke-width:1.5;"/>
    <path clip-path="url(#p7bb392c0d8)" d="M 123.082185 345.6 
L 123.082185 345.6 
" style="fill:none;stroke:#2ca02c;stroke-width:1.5;"/>
    <path clip-path="url(#p7bb392c0d8)" d="M 135.936037 345.6 
L 135.936037 345.6 
" style="fill:none;stroke:#2ca02c;stroke-width:1.5;"/>
    <path clip-path="url(#p7bb392c0d8)" d="M 148.789889 345.6 
L 148.789889 345.6 
" style="fill:none;stroke:#2ca02c;stroke-width:1.5;"/>
    <path clip-path="url(#p7bb392c0d8)" d="M 161.643741 345.6 
L 161.643741 345.6 
" style="fill:none;stroke:#2ca02c;stroke-width:1.5;"/>
    <path clip-path="url(#p7bb392c0d8)" d="M 174.497593 345.6 
L 174.497593 345.6 
" style="fill:none;stroke:#2ca02c;stroke-width:1.5;"/>
    <path clip-path="url(#p7bb392c0d8)" d="M 187.351445 345.6 
L 187.351445 345.6 
" style="fill:none;stroke:#2ca02c;stroke-width:1.5;"/>
    <path clip-path="url(#p7bb392c0d8)" d="M 200.205298 345.6 
L 200.205298 345.6 
" style="fill:none;stroke:#2ca02c;stroke-width:1.5;"/>
    <path clip-path="url(#p7bb392c0d8)" d="M 213.05915 345.6 
L 213.05915 345.6 
" style="fill:none;stroke:#2ca02c;stroke-width:1.5;"/>
    <path clip-path="url(#p7bb392c0d8)" d="M 225.913002 345.6 
L 225.913002 344.1312 
" style="fill:none;stroke:#2ca02c;stroke-width:1.5;"/>
    <path clip-path="url(#p7bb392c0d8)" d="M 238.766854 345.6 
L 238.766854 345.6 
" style="fill:none;stroke:#2ca02c;stroke-width:1.5;"/>
    <path clip-path="url(#p7bb392c0d8)" d="M 251.620706 345.6 
L 251.620706 345.6 
" style="fill:none;stroke:#2ca02c;stroke-width:1.5;"/>
    <path clip-path="url(#p7bb392c0d8)" d="M 264.474558 345.6 
L 264.474558 345.6 
" style="fill:none;stroke:#2ca02c;stroke-width:1.5;"/>
    <path clip-path="url(#p7bb392c0d8)" d="M 277.32841 345.6 
L 277.32841 345.6 
" style="fill:none;stroke:#2ca02c;stroke-width:1.5;"/>
    <path clip-path="url(#p7bb392c0d8)" d="M 290.182262 345.6 
L 290.182262 344.1312 
" style="fill:none;stroke:#2ca02c;stroke-width:1.5;"/>
    <path clip-path="url(#p7bb392c0d8)" d="M 303.036114 345.6 
L 303.036114 345.6 
" style="fill:none;stroke:#2ca02c;stroke-width:1.5;"/>
    <path clip-path="url(#p7bb392c0d8)" d="M 315.889966 345.6 
L 315.889966 345.6 
" style="fill:none;stroke:#2ca02c;stroke-width:1.5;"/>
    <path clip-path="url(#p7bb392c0d8)" d="M 328.743818 344.1312 
L 328.743818 341.1936 
" style="fill:none;stroke:#2ca02c;stroke-width:1.5;"/>
    <path clip-path="url(#p7bb392c0d8)" d="M 341.59767 345.169798 
L 341.59767 343.092602 
" style="fill:none;stroke:#2ca02c;stroke-width:1.5;"/>
    <path clip-path="url(#p7bb392c0d8)" d="M 354.451522 344.668818 
L 354.451522 342.124782 
" style="fill:none;stroke:#2ca02c;stroke-width:1.5;"/>
    <path clip-path="url(#p7bb392c0d8)" d="M 367.305374 343.570168 
L 367.305374 340.285832 
" style="fill:none;stroke:#2ca02c;stroke-width:1.5;"/>
    <path clip-path="url(#p7bb392c0d8)" d="M 380.159226 341.801997 
L 380.159226 337.647603 
" style="fill:none;stroke:#2ca02c;stroke-width:1.5;"/>
    <path clip-path="url(#p7bb392c0d8)" d="M 393.013078 338.066273 
L 393.013078 332.570527 
" style="fill:none;stroke:#2ca02c;stroke-width:1.5;"/>
    <path clip-path="url(#p7bb392c0d8)" d="M 405.866931 337.428319 
L 405.866931 331.739681 
" style="fill:none;stroke:#2ca02c;stroke-width:1.5;"/>
    <path clip-path="url(#p7bb392c0d8)" d="M 418.720783 333.543044 
L 418.720783 326.812156 
" style="fill:none;stroke:#2ca02c;stroke-width:1.5;"/>
    <path clip-path="url(#p7bb392c0d8)" d="M 431.574635 331.572211 
L 431.574635 324.376589 
" style="fill:none;stroke:#2ca02c;stroke-width:1.5;"/>
    <path clip-path="url(#p7bb392c0d8)" d="M 444.428487 334.196337 
L 444.428487 327.627663 
" style="fill:none;stroke:#2ca02c;stroke-width:1.5;"/>
    <path clip-path="url(#p7bb392c0d8)" d="M 457.282339 330.912 
L 457.282339 323.568 
" style="fill:none;stroke:#2ca02c;stroke-width:1.5;"/>
    <path clip-path="url(#p7bb392c0d8)" d="M 470.136191 327.590474 
L 470.136191 319.545526 
" style="fill:none;stroke:#2ca02c;stroke-width:1.5;"/>
    <path clip-path="url(#p7bb392c0d8)" d="M 482.990043 314.072992 
L 482.990043 303.687008 
" style="fill:none;stroke:#2ca02c;stroke-width:1.5;"/>
    <path clip-path="url(#p7bb392c0d8)" d="M 495.843895 312.707034 
L 495.843895 302.115366 
" style="fill:none;stroke:#2ca02c;stroke-width:1.5;"/>
    <path clip-path="url(#p7bb392c0d8)" d="M 508.697747 322.219946 
L 508.697747 313.165654 
" style="fill:none;stroke:#2ca02c;stroke-width:1.5;"/>
    <path clip-path="url(#p7bb392c0d8)" d="M 521.551599 307.911433 
L 521.551599 296.629367 
" style="fill:none;stroke:#2ca02c;stroke-width:1.5;"/>
    <path clip-path="url(#p7bb392c0d8)" d="M 534.405451 320.192054 
L 534.405451 310.787146 
" style="fill:none;stroke:#2ca02c;stroke-width:1.5;"/>
    <path clip-path="url(#p7bb392c0d8)" d="M 547.259303 301.026785 
L 547.259303 288.826015 
" style="fill:none;stroke:#2ca02c;stroke-width:1.5;"/>
    <path clip-path="url(#p7bb392c0d8)" d="M 560.113155 301.026785 
L 560.113155 288.826015 
" style="fill:none;stroke:#2ca02c;stroke-width:1.5;"/>
    <path clip-path="url(#p7bb392c0d8)" d="M 572.967007 298.263516 
L 572.967007 285.714084 
" style="fill:none;stroke:#2ca02c;stroke-width:1.5;"/>
    <path clip-path="url(#p7bb392c0d8)" d="M 585.820859 307.911433 
L 585.820859 296.629367 
" style="fill:none;stroke:#2ca02c;stroke-width:1.5;"/>
    <path clip-path="url(#p7bb392c0d8)" d="M 598.674711 286.47113 
L 598.674711 272.53687 
" style="fill:none;stroke:#2ca02c;stroke-width:1.5;"/>
    <path clip-path="url(#p7bb392c0d8)" d="M 611.528563 294.10989 
L 611.528563 281.05491 
" style="fill:none;stroke:#2ca02c;stroke-width:1.5;"/>
    <path clip-path="url(#p7bb392c0d8)" d="M 624.382416 309.969346 
L 624.382416 298.977854 
" style="fill:none;stroke:#2ca02c;stroke-width:1.5;"/>
    <path clip-path="url(#p7bb392c0d8)" d="M 637.236268 304.4736 
L 637.236268 292.7232 
" style="fill:none;stroke:#2ca02c;stroke-width:1.5;"/>
    <path clip-path="url(#p7bb392c0d8)" d="M 650.09012 345.6 
L 650.09012 345.6 
" style="fill:none;stroke:#2ca02c;stroke-width:1.5;"/>
   </g>
   <g id="line2d_21">
    <path clip-path="url(#p7bb392c0d8)" d="M 238.766854 311.8176 
L 251.620706 215.244 
L 264.474558 202.7592 
L 277.32841 236.1744 
L 290.182262 227.3616 
L 303.036114 232.8696 
L 315.889966 232.8696 
L 328.743818 220.3848 
L 341.59767 207.5328 
L 354.451522 225.8928 
L 367.305374 226.9944 
L 380.159226 228.096 
L 393.013078 225.8928 
L 405.866931 230.6664 
L 418.720783 240.2136 
L 431.574635 234.7056 
L 444.428487 228.096 
L 457.282339 214.8768 
L 470.136191 217.4472 
L 482.990043 233.9712 
L 495.843895 237.276 
L 508.697747 223.6896 
L 521.551599 225.8928 
L 534.405451 247.1904 
L 547.259303 246.456 
L 560.113155 229.932 
L 572.967007 233.604 
L 585.820859 246.456 
L 598.674711 254.1672 
L 611.528563 251.2296 
L 624.382416 243.1512 
L 637.236268 251.964 
" style="fill:none;stroke:#1f77b4;stroke-linecap:square;stroke-width:1.5;"/>
   </g>
   <g id="line2d_22">
    <path clip-path="url(#p7bb392c0d8)" d="M 238.766854 327.6072 
L 251.620706 302.6376 
L 264.474558 290.8872 
L 277.32841 291.2544 
L 290.182262 297.4968 
L 303.036114 299.7 
L 315.889966 293.4576 
L 328.743818 279.1368 
L 341.59767 262.2456 
L 354.451522 274.7304 
L 367.305374 280.9728 
L 380.159226 278.4024 
L 393.013078 275.0976 
L 405.866931 267.0192 
L 418.720783 272.8944 
L 431.574635 276.9336 
L 444.428487 265.1832 
L 457.282339 254.9016 
L 470.136191 235.8072 
L 482.990043 235.0728 
L 495.843895 247.9248 
L 508.697747 244.62 
L 521.551599 241.6824 
L 534.405451 235.8072 
L 547.259303 242.784 
L 560.113155 240.2136 
L 572.967007 228.4632 
L 585.820859 239.4792 
L 598.674711 229.1976 
L 611.528563 218.1816 
L 624.382416 215.244 
L 637.236268 208.2672 
" style="fill:none;stroke:#ff7f0e;stroke-linecap:square;stroke-width:1.5;"/>
   </g>
   <g id="line2d_23">
    <path clip-path="url(#p7bb392c0d8)" d="M 238.766854 345.2328 
L 251.620706 345.6 
L 264.474558 345.6 
L 277.32841 345.6 
L 290.182262 345.2328 
L 303.036114 345.2328 
L 315.889966 345.6 
L 328.743818 344.1312 
L 341.59767 343.3968 
L 354.451522 343.764 
L 367.305374 342.6624 
L 380.159226 340.8264 
L 393.013078 337.5216 
L 405.866931 334.9512 
L 418.720783 332.3808 
L 431.574635 329.076 
L 444.428487 329.4432 
L 457.282339 329.076 
L 470.136191 325.404 
L 482.990043 316.224 
L 495.843895 308.1456 
L 508.697747 312.552 
L 521.551599 309.9816 
L 534.405451 308.88 
L 547.259303 305.208 
L 560.113155 294.9264 
L 572.967007 293.4576 
L 585.820859 297.1296 
L 598.674711 290.8872 
L 611.528563 283.5432 
L 624.382416 296.028 
L 637.236268 301.536 
" style="fill:none;stroke:#2ca02c;stroke-linecap:square;stroke-width:1.5;"/>
   </g>
   <g id="line2d_24">
    <path clip-path="url(#p7bb392c0d8)" d="M 238.766854 293.4576 
L 251.620706 172.2816 
L 264.474558 148.0464 
L 277.32841 181.8288 
L 290.182262 178.8912 
L 303.036114 186.6024 
L 315.889966 180.7272 
L 328.743818 152.4528 
L 341.59767 121.9752 
L 354.451522 153.1872 
L 367.305374 159.4296 
L 380.159226 156.1248 
L 393.013078 147.312 
L 405.866931 141.4368 
L 418.720783 154.2888 
L 431.574635 149.5152 
L 444.428487 131.5224 
L 457.282339 107.6544 
L 470.136191 87.4584 
L 482.990043 94.068 
L 495.843895 102.1464 
L 508.697747 89.6616 
L 521.551599 86.3568 
L 534.405451 100.6776 
L 547.259303 103.248 
L 560.113155 73.872 
L 572.967007 64.3248 
L 585.820859 91.8648 
L 598.674711 83.052 
L 611.528563 61.7544 
L 624.382416 63.2232 
L 637.236268 70.5672 
" style="fill:none;stroke:#7f7f7f;stroke-dasharray:1.5,2.475;stroke-dashoffset:0;stroke-width:1.5;"/>
   </g>
   <g id="line2d_25">
    <path clip-path="url(#p7bb392c0d8)" d="M 224.965447 345.6 
L 224.965447 51.84 
" style="fill:none;stroke:#808080;stroke-dasharray:1.5,2.475;stroke-dashoffset:0;stroke-width:1.5;"/>
   </g>
   <g id="line2d_26">
    <defs>
     <path d="M 0 3 
C 0.795609 3 1.55874 2.683901 2.12132 2.12132 
C 2.683901 1.55874 3 0.795609 3 0 
C 3 -0.795609 2.683901 -1.55874 2.12132 -2.12132 
C 1.55874 -2.683901 0.795609 -3 0 -3 
C -0.795609 -3 -1.55874 -2.683901 -2.12132 -2.12132 
C -2.683901 -1.55874 -3 -0.795609 -3 0 
C -3 0.795609 -2.683901 1.55874 -2.12132 2.12132 
C -1.55874 2.683901 -0.795609 3 0 3 
z
" id="m15996e89d4" style="stroke:#1f77b4;"/>
    </defs>
    <g clip-path="url(#p7bb392c0d8)">
     <use style="fill:#1f77b4;stroke:#1f77b4;" x="7.397517" xlink:href="#m15996e89d4" y="345.6"/>
     <use style="fill:#1f77b4;stroke:#1f77b4;" x="20.251369" xlink:href="#m15996e89d4" y="345.6"/>
     <use style="fill:#1f77b4;stroke:#1f77b4;" x="33.105221" xlink:href="#m15996e89d4" y="345.6"/>
     <use style="fill:#1f77b4;stroke:#1f77b4;" x="45.959073" xlink:href="#m15996e89d4" y="345.6"/>
     <use style="fill:#1f77b4;stroke:#1f77b4;" x="58.812925" xlink:href="#m15996e89d4" y="344.8656"/>
     <use style="fill:#1f77b4;stroke:#1f77b4;" x="71.666777" xlink:href="#m15996e89d4" y="345.6"/>
     <use style="fill:#1f77b4;stroke:#1f77b4;" x="84.520629" xlink:href="#m15996e89d4" y="344.8656"/>
     <use style="fill:#1f77b4;stroke:#1f77b4;" x="97.374481" xlink:href="#m15996e89d4" y="345.6"/>
     <use style="fill:#1f77b4;stroke:#1f77b4;" x="110.228333" xlink:href="#m15996e89d4" y="345.6"/>
     <use style="fill:#1f77b4;stroke:#1f77b4;" x="123.082185" xlink:href="#m15996e89d4" y="342.6624"/>
     <use style="fill:#1f77b4;stroke:#1f77b4;" x="135.936037" xlink:href="#m15996e89d4" y="342.6624"/>
     <use style="fill:#1f77b4;stroke:#1f77b4;" x="148.789889" xlink:href="#m15996e89d4" y="343.3968"/>
     <use style="fill:#1f77b4;stroke:#1f77b4;" x="161.643741" xlink:href="#m15996e89d4" y="344.8656"/>
     <use style="fill:#1f77b4;stroke:#1f77b4;" x="174.497593" xlink:href="#m15996e89d4" y="344.8656"/>
     <use style="fill:#1f77b4;stroke:#1f77b4;" x="187.351445" xlink:href="#m15996e89d4" y="341.1936"/>
     <use style="fill:#1f77b4;stroke:#1f77b4;" x="200.205298" xlink:href="#m15996e89d4" y="343.3968"/>
     <use style="fill:#1f77b4;stroke:#1f77b4;" x="213.05915" xlink:href="#m15996e89d4" y="342.6624"/>
     <use style="fill:#1f77b4;stroke:#1f77b4;" x="225.913002" xlink:href="#m15996e89d4" y="341.928"/>
     <use style="fill:#1f77b4;stroke:#1f77b4;" x="238.766854" xlink:href="#m15996e89d4" y="281.7072"/>
     <use style="fill:#1f77b4;stroke:#1f77b4;" x="251.620706" xlink:href="#m15996e89d4" y="148.7808"/>
     <use style="fill:#1f77b4;stroke:#1f77b4;" x="264.474558" xlink:href="#m15996e89d4" y="256.7376"/>
     <use style="fill:#1f77b4;stroke:#1f77b4;" x="277.32841" xlink:href="#m15996e89d4" y="215.6112"/>
     <use style="fill:#1f77b4;stroke:#1f77b4;" x="290.182262" xlink:href="#m15996e89d4" y="239.112"/>
     <use style="fill:#1f77b4;stroke:#1f77b4;" x="303.036114" xlink:href="#m15996e89d4" y="226.6272"/>
     <use style="fill:#1f77b4;stroke:#1f77b4;" x="315.889966" xlink:href="#m15996e89d4" y="239.112"/>
     <use style="fill:#1f77b4;stroke:#1f77b4;" x="328.743818" xlink:href="#m15996e89d4" y="201.6576"/>
     <use style="fill:#1f77b4;stroke:#1f77b4;" x="341.59767" xlink:href="#m15996e89d4" y="213.408"/>
     <use style="fill:#1f77b4;stroke:#1f77b4;" x="354.451522" xlink:href="#m15996e89d4" y="238.3776"/>
     <use style="fill:#1f77b4;stroke:#1f77b4;" x="367.305374" xlink:href="#m15996e89d4" y="215.6112"/>
     <use style="fill:#1f77b4;stroke:#1f77b4;" x="380.159226" xlink:href="#m15996e89d4" y="240.5808"/>
     <use style="fill:#1f77b4;stroke:#1f77b4;" x="393.013078" xlink:href="#m15996e89d4" y="211.2048"/>
     <use style="fill:#1f77b4;stroke:#1f77b4;" x="405.866931" xlink:href="#m15996e89d4" y="250.128"/>
     <use style="fill:#1f77b4;stroke:#1f77b4;" x="418.720783" xlink:href="#m15996e89d4" y="230.2992"/>
     <use style="fill:#1f77b4;stroke:#1f77b4;" x="431.574635" xlink:href="#m15996e89d4" y="239.112"/>
     <use style="fill:#1f77b4;stroke:#1f77b4;" x="444.428487" xlink:href="#m15996e89d4" y="217.08"/>
     <use style="fill:#1f77b4;stroke:#1f77b4;" x="457.282339" xlink:href="#m15996e89d4" y="212.6736"/>
     <use style="fill:#1f77b4;stroke:#1f77b4;" x="470.136191" xlink:href="#m15996e89d4" y="222.2208"/>
     <use style="fill:#1f77b4;stroke:#1f77b4;" x="482.990043" xlink:href="#m15996e89d4" y="245.7216"/>
     <use style="fill:#1f77b4;stroke:#1f77b4;" x="495.843895" xlink:href="#m15996e89d4" y="228.8304"/>
     <use style="fill:#1f77b4;stroke:#1f77b4;" x="508.697747" xlink:href="#m15996e89d4" y="218.5488"/>
     <use style="fill:#1f77b4;stroke:#1f77b4;" x="521.551599" xlink:href="#m15996e89d4" y="233.2368"/>
     <use style="fill:#1f77b4;stroke:#1f77b4;" x="534.405451" xlink:href="#m15996e89d4" y="261.144"/>
     <use style="fill:#1f77b4;stroke:#1f77b4;" x="547.259303" xlink:href="#m15996e89d4" y="231.768"/>
     <use style="fill:#1f77b4;stroke:#1f77b4;" x="560.113155" xlink:href="#m15996e89d4" y="228.096"/>
     <use style="fill:#1f77b4;stroke:#1f77b4;" x="572.967007" xlink:href="#m15996e89d4" y="239.112"/>
     <use style="fill:#1f77b4;stroke:#1f77b4;" x="585.820859" xlink:href="#m15996e89d4" y="253.8"/>
     <use style="fill:#1f77b4;stroke:#1f77b4;" x="598.674711" xlink:href="#m15996e89d4" y="254.5344"/>
     <use style="fill:#1f77b4;stroke:#1f77b4;" x="611.528563" xlink:href="#m15996e89d4" y="247.9248"/>
     <use style="fill:#1f77b4;stroke:#1f77b4;" x="624.382416" xlink:href="#m15996e89d4" y="238.3776"/>
     <use style="fill:#1f77b4;stroke:#1f77b4;" x="637.236268" xlink:href="#m15996e89d4" y="265.5504"/>
     <use style="fill:#1f77b4;stroke:#1f77b4;" x="650.09012" xlink:href="#m15996e89d4" y="345.6"/>
    </g>
   </g>
   <g id="line2d_27">
    <defs>
     <path d="M 0 3 
C 0.795609 3 1.55874 2.683901 2.12132 2.12132 
C 2.683901 1.55874 3 0.795609 3 0 
C 3 -0.795609 2.683901 -1.55874 2.12132 -2.12132 
C 1.55874 -2.683901 0.795609 -3 0 -3 
C -0.795609 -3 -1.55874 -2.683901 -2.12132 -2.12132 
C -2.683901 -1.55874 -3 -0.795609 -3 0 
C -3 0.795609 -2.683901 1.55874 -2.12132 2.12132 
C -1.55874 2.683901 -0.795609 3 0 3 
z
" id="m1ff61367fc" style="stroke:#ff7f0e;"/>
    </defs>
    <g clip-path="url(#p7bb392c0d8)">
     <use style="fill:#ff7f0e;stroke:#ff7f0e;" x="7.397517" xlink:href="#m1ff61367fc" y="345.6"/>
     <use style="fill:#ff7f0e;stroke:#ff7f0e;" x="20.251369" xlink:href="#m1ff61367fc" y="345.6"/>
     <use style="fill:#ff7f0e;stroke:#ff7f0e;" x="33.105221" xlink:href="#m1ff61367fc" y="345.6"/>
     <use style="fill:#ff7f0e;stroke:#ff7f0e;" x="45.959073" xlink:href="#m1ff61367fc" y="345.6"/>
     <use style="fill:#ff7f0e;stroke:#ff7f0e;" x="58.812925" xlink:href="#m1ff61367fc" y="344.8656"/>
     <use style="fill:#ff7f0e;stroke:#ff7f0e;" x="71.666777" xlink:href="#m1ff61367fc" y="345.6"/>
     <use style="fill:#ff7f0e;stroke:#ff7f0e;" x="84.520629" xlink:href="#m1ff61367fc" y="345.6"/>
     <use style="fill:#ff7f0e;stroke:#ff7f0e;" x="97.374481" xlink:href="#m1ff61367fc" y="345.6"/>
     <use style="fill:#ff7f0e;stroke:#ff7f0e;" x="110.228333" xlink:href="#m1ff61367fc" y="345.6"/>
     <use style="fill:#ff7f0e;stroke:#ff7f0e;" x="123.082185" xlink:href="#m1ff61367fc" y="344.1312"/>
     <use style="fill:#ff7f0e;stroke:#ff7f0e;" x="135.936037" xlink:href="#m1ff61367fc" y="345.6"/>
     <use style="fill:#ff7f0e;stroke:#ff7f0e;" x="148.789889" xlink:href="#m1ff61367fc" y="343.3968"/>
     <use style="fill:#ff7f0e;stroke:#ff7f0e;" x="161.643741" xlink:href="#m1ff61367fc" y="344.8656"/>
     <use style="fill:#ff7f0e;stroke:#ff7f0e;" x="174.497593" xlink:href="#m1ff61367fc" y="343.3968"/>
     <use style="fill:#ff7f0e;stroke:#ff7f0e;" x="187.351445" xlink:href="#m1ff61367fc" y="341.1936"/>
     <use style="fill:#ff7f0e;stroke:#ff7f0e;" x="200.205298" xlink:href="#m1ff61367fc" y="340.4592"/>
     <use style="fill:#ff7f0e;stroke:#ff7f0e;" x="213.05915" xlink:href="#m1ff61367fc" y="343.3968"/>
     <use style="fill:#ff7f0e;stroke:#ff7f0e;" x="225.913002" xlink:href="#m1ff61367fc" y="338.256"/>
     <use style="fill:#ff7f0e;stroke:#ff7f0e;" x="238.766854" xlink:href="#m1ff61367fc" y="316.9584"/>
     <use style="fill:#ff7f0e;stroke:#ff7f0e;" x="251.620706" xlink:href="#m1ff61367fc" y="288.3168"/>
     <use style="fill:#ff7f0e;stroke:#ff7f0e;" x="264.474558" xlink:href="#m1ff61367fc" y="293.4576"/>
     <use style="fill:#ff7f0e;stroke:#ff7f0e;" x="277.32841" xlink:href="#m1ff61367fc" y="289.0512"/>
     <use style="fill:#ff7f0e;stroke:#ff7f0e;" x="290.182262" xlink:href="#m1ff61367fc" y="305.9424"/>
     <use style="fill:#ff7f0e;stroke:#ff7f0e;" x="303.036114" xlink:href="#m1ff61367fc" y="293.4576"/>
     <use style="fill:#ff7f0e;stroke:#ff7f0e;" x="315.889966" xlink:href="#m1ff61367fc" y="293.4576"/>
     <use style="fill:#ff7f0e;stroke:#ff7f0e;" x="328.743818" xlink:href="#m1ff61367fc" y="264.816"/>
     <use style="fill:#ff7f0e;stroke:#ff7f0e;" x="341.59767" xlink:href="#m1ff61367fc" y="259.6752"/>
     <use style="fill:#ff7f0e;stroke:#ff7f0e;" x="354.451522" xlink:href="#m1ff61367fc" y="289.7856"/>
     <use style="fill:#ff7f0e;stroke:#ff7f0e;" x="367.305374" xlink:href="#m1ff61367fc" y="272.16"/>
     <use style="fill:#ff7f0e;stroke:#ff7f0e;" x="380.159226" xlink:href="#m1ff61367fc" y="284.6448"/>
     <use style="fill:#ff7f0e;stroke:#ff7f0e;" x="393.013078" xlink:href="#m1ff61367fc" y="265.5504"/>
     <use style="fill:#ff7f0e;stroke:#ff7f0e;" x="405.866931" xlink:href="#m1ff61367fc" y="268.488"/>
     <use style="fill:#ff7f0e;stroke:#ff7f0e;" x="418.720783" xlink:href="#m1ff61367fc" y="277.3008"/>
     <use style="fill:#ff7f0e;stroke:#ff7f0e;" x="431.574635" xlink:href="#m1ff61367fc" y="276.5664"/>
     <use style="fill:#ff7f0e;stroke:#ff7f0e;" x="444.428487" xlink:href="#m1ff61367fc" y="253.8"/>
     <use style="fill:#ff7f0e;stroke:#ff7f0e;" x="457.282339" xlink:href="#m1ff61367fc" y="256.0032"/>
     <use style="fill:#ff7f0e;stroke:#ff7f0e;" x="470.136191" xlink:href="#m1ff61367fc" y="215.6112"/>
     <use style="fill:#ff7f0e;stroke:#ff7f0e;" x="482.990043" xlink:href="#m1ff61367fc" y="254.5344"/>
     <use style="fill:#ff7f0e;stroke:#ff7f0e;" x="495.843895" xlink:href="#m1ff61367fc" y="241.3152"/>
     <use style="fill:#ff7f0e;stroke:#ff7f0e;" x="508.697747" xlink:href="#m1ff61367fc" y="247.9248"/>
     <use style="fill:#ff7f0e;stroke:#ff7f0e;" x="521.551599" xlink:href="#m1ff61367fc" y="235.44"/>
     <use style="fill:#ff7f0e;stroke:#ff7f0e;" x="534.405451" xlink:href="#m1ff61367fc" y="236.1744"/>
     <use style="fill:#ff7f0e;stroke:#ff7f0e;" x="547.259303" xlink:href="#m1ff61367fc" y="249.3936"/>
     <use style="fill:#ff7f0e;stroke:#ff7f0e;" x="560.113155" xlink:href="#m1ff61367fc" y="231.0336"/>
     <use style="fill:#ff7f0e;stroke:#ff7f0e;" x="572.967007" xlink:href="#m1ff61367fc" y="225.8928"/>
     <use style="fill:#ff7f0e;stroke:#ff7f0e;" x="585.820859" xlink:href="#m1ff61367fc" y="253.0656"/>
     <use style="fill:#ff7f0e;stroke:#ff7f0e;" x="598.674711" xlink:href="#m1ff61367fc" y="205.3296"/>
     <use style="fill:#ff7f0e;stroke:#ff7f0e;" x="611.528563" xlink:href="#m1ff61367fc" y="231.0336"/>
     <use style="fill:#ff7f0e;stroke:#ff7f0e;" x="624.382416" xlink:href="#m1ff61367fc" y="199.4544"/>
     <use style="fill:#ff7f0e;stroke:#ff7f0e;" x="637.236268" xlink:href="#m1ff61367fc" y="217.08"/>
     <use style="fill:#ff7f0e;stroke:#ff7f0e;" x="650.09012" xlink:href="#m1ff61367fc" y="345.6"/>
    </g>
   </g>
   <g id="line2d_28">
    <defs>
     <path d="M 0 3 
C 0.795609 3 1.55874 2.683901 2.12132 2.12132 
C 2.683901 1.55874 3 0.795609 3 0 
C 3 -0.795609 2.683901 -1.55874 2.12132 -2.12132 
C 1.55874 -2.683901 0.795609 -3 0 -3 
C -0.795609 -3 -1.55874 -2.683901 -2.12132 -2.12132 
C -2.683901 -1.55874 -3 -0.795609 -3 0 
C -3 0.795609 -2.683901 1.55874 -2.12132 2.12132 
C -1.55874 2.683901 -0.795609 3 0 3 
z
" id="ma9a56980a1" style="stroke:#2ca02c;"/>
    </defs>
    <g clip-path="url(#p7bb392c0d8)">
     <use style="fill:#2ca02c;stroke:#2ca02c;" x="7.397517" xlink:href="#ma9a56980a1" y="345.6"/>
     <use style="fill:#2ca02c;stroke:#2ca02c;" x="20.251369" xlink:href="#ma9a56980a1" y="345.6"/>
     <use style="fill:#2ca02c;stroke:#2ca02c;" x="33.105221" xlink:href="#ma9a56980a1" y="345.6"/>
     <use style="fill:#2ca02c;stroke:#2ca02c;" x="45.959073" xlink:href="#ma9a56980a1" y="345.6"/>
     <use style="fill:#2ca02c;stroke:#2ca02c;" x="58.812925" xlink:href="#ma9a56980a1" y="345.6"/>
     <use style="fill:#2ca02c;stroke:#2ca02c;" x="71.666777" xlink:href="#ma9a56980a1" y="345.6"/>
     <use style="fill:#2ca02c;stroke:#2ca02c;" x="84.520629" xlink:href="#ma9a56980a1" y="345.6"/>
     <use style="fill:#2ca02c;stroke:#2ca02c;" x="97.374481" xlink:href="#ma9a56980a1" y="345.6"/>
     <use style="fill:#2ca02c;stroke:#2ca02c;" x="110.228333" xlink:href="#ma9a56980a1" y="345.6"/>
     <use style="fill:#2ca02c;stroke:#2ca02c;" x="123.082185" xlink:href="#ma9a56980a1" y="345.6"/>
     <use style="fill:#2ca02c;stroke:#2ca02c;" x="135.936037" xlink:href="#ma9a56980a1" y="345.6"/>
     <use style="fill:#2ca02c;stroke:#2ca02c;" x="148.789889" xlink:href="#ma9a56980a1" y="345.6"/>
     <use style="fill:#2ca02c;stroke:#2ca02c;" x="161.643741" xlink:href="#ma9a56980a1" y="345.6"/>
     <use style="fill:#2ca02c;stroke:#2ca02c;" x="174.497593" xlink:href="#ma9a56980a1" y="345.6"/>
     <use style="fill:#2ca02c;stroke:#2ca02c;" x="187.351445" xlink:href="#ma9a56980a1" y="345.6"/>
     <use style="fill:#2ca02c;stroke:#2ca02c;" x="200.205298" xlink:href="#ma9a56980a1" y="345.6"/>
     <use style="fill:#2ca02c;stroke:#2ca02c;" x="213.05915" xlink:href="#ma9a56980a1" y="345.6"/>
     <use style="fill:#2ca02c;stroke:#2ca02c;" x="225.913002" xlink:href="#ma9a56980a1" y="344.8656"/>
     <use style="fill:#2ca02c;stroke:#2ca02c;" x="238.766854" xlink:href="#ma9a56980a1" y="345.6"/>
     <use style="fill:#2ca02c;stroke:#2ca02c;" x="251.620706" xlink:href="#ma9a56980a1" y="345.6"/>
     <use style="fill:#2ca02c;stroke:#2ca02c;" x="264.474558" xlink:href="#ma9a56980a1" y="345.6"/>
     <use style="fill:#2ca02c;stroke:#2ca02c;" x="277.32841" xlink:href="#ma9a56980a1" y="345.6"/>
     <use style="fill:#2ca02c;stroke:#2ca02c;" x="290.182262" xlink:href="#ma9a56980a1" y="344.8656"/>
     <use style="fill:#2ca02c;stroke:#2ca02c;" x="303.036114" xlink:href="#ma9a56980a1" y="345.6"/>
     <use style="fill:#2ca02c;stroke:#2ca02c;" x="315.889966" xlink:href="#ma9a56980a1" y="345.6"/>
     <use style="fill:#2ca02c;stroke:#2ca02c;" x="328.743818" xlink:href="#ma9a56980a1" y="342.6624"/>
     <use style="fill:#2ca02c;stroke:#2ca02c;" x="341.59767" xlink:href="#ma9a56980a1" y="344.1312"/>
     <use style="fill:#2ca02c;stroke:#2ca02c;" x="354.451522" xlink:href="#ma9a56980a1" y="343.3968"/>
     <use style="fill:#2ca02c;stroke:#2ca02c;" x="367.305374" xlink:href="#ma9a56980a1" y="341.928"/>
     <use style="fill:#2ca02c;stroke:#2ca02c;" x="380.159226" xlink:href="#ma9a56980a1" y="339.7248"/>
     <use style="fill:#2ca02c;stroke:#2ca02c;" x="393.013078" xlink:href="#ma9a56980a1" y="335.3184"/>
     <use style="fill:#2ca02c;stroke:#2ca02c;" x="405.866931" xlink:href="#ma9a56980a1" y="334.584"/>
     <use style="fill:#2ca02c;stroke:#2ca02c;" x="418.720783" xlink:href="#ma9a56980a1" y="330.1776"/>
     <use style="fill:#2ca02c;stroke:#2ca02c;" x="431.574635" xlink:href="#ma9a56980a1" y="327.9744"/>
     <use style="fill:#2ca02c;stroke:#2ca02c;" x="444.428487" xlink:href="#ma9a56980a1" y="330.912"/>
     <use style="fill:#2ca02c;stroke:#2ca02c;" x="457.282339" xlink:href="#ma9a56980a1" y="327.24"/>
     <use style="fill:#2ca02c;stroke:#2ca02c;" x="470.136191" xlink:href="#ma9a56980a1" y="323.568"/>
     <use style="fill:#2ca02c;stroke:#2ca02c;" x="482.990043" xlink:href="#ma9a56980a1" y="308.88"/>
     <use style="fill:#2ca02c;stroke:#2ca02c;" x="495.843895" xlink:href="#ma9a56980a1" y="307.4112"/>
     <use style="fill:#2ca02c;stroke:#2ca02c;" x="508.697747" xlink:href="#ma9a56980a1" y="317.6928"/>
     <use style="fill:#2ca02c;stroke:#2ca02c;" x="521.551599" xlink:href="#ma9a56980a1" y="302.2704"/>
     <use style="fill:#2ca02c;stroke:#2ca02c;" x="534.405451" xlink:href="#ma9a56980a1" y="315.4896"/>
     <use style="fill:#2ca02c;stroke:#2ca02c;" x="547.259303" xlink:href="#ma9a56980a1" y="294.9264"/>
     <use style="fill:#2ca02c;stroke:#2ca02c;" x="560.113155" xlink:href="#ma9a56980a1" y="294.9264"/>
     <use style="fill:#2ca02c;stroke:#2ca02c;" x="572.967007" xlink:href="#ma9a56980a1" y="291.9888"/>
     <use style="fill:#2ca02c;stroke:#2ca02c;" x="585.820859" xlink:href="#ma9a56980a1" y="302.2704"/>
     <use style="fill:#2ca02c;stroke:#2ca02c;" x="598.674711" xlink:href="#ma9a56980a1" y="279.504"/>
     <use style="fill:#2ca02c;stroke:#2ca02c;" x="611.528563" xlink:href="#ma9a56980a1" y="287.5824"/>
     <use style="fill:#2ca02c;stroke:#2ca02c;" x="624.382416" xlink:href="#ma9a56980a1" y="304.4736"/>
     <use style="fill:#2ca02c;stroke:#2ca02c;" x="637.236268" xlink:href="#ma9a56980a1" y="298.5984"/>
     <use style="fill:#2ca02c;stroke:#2ca02c;" x="650.09012" xlink:href="#ma9a56980a1" y="345.6"/>
    </g>
   </g>
   <g id="patch_3">
    <path d="M 90 345.6 
L 90 51.84 
" style="fill:none;stroke:#000000;stroke-linecap:square;stroke-linejoin:miter;stroke-width:0.8;"/>
   </g>
   <g id="patch_4">
    <path d="M 648 345.6 
L 648 51.84 
" style="fill:none;stroke:#000000;stroke-linecap:square;stroke-linejoin:miter;stroke-width:0.8;"/>
   </g>
   <g id="patch_5">
    <path d="M 90 345.6 
L 648 345.6 
" style="fill:none;stroke:#000000;stroke-linecap:square;stroke-linejoin:miter;stroke-width:0.8;"/>
   </g>
   <g id="patch_6">
    <path d="M 90 51.84 
L 648 51.84 
" style="fill:none;stroke:#000000;stroke-linecap:square;stroke-linejoin:miter;stroke-width:0.8;"/>
   </g>
   <g id="text_23">
    <!-- CMSSW moved to GitHub -->
    <g transform="translate(223.994649 320.822781)rotate(-90)scale(0.1 -0.1)">
     <defs>
      <path d="M 213 4666 
L 850 4666 
L 1831 722 
L 2809 4666 
L 3519 4666 
L 4500 722 
L 5478 4666 
L 6119 4666 
L 4947 0 
L 4153 0 
L 3169 4050 
L 2175 0 
L 1381 0 
L 213 4666 
z
" id="DejaVuSans-57" transform="scale(0.015625)"/>
      <path d="M 3328 2828 
Q 3544 3216 3844 3400 
Q 4144 3584 4550 3584 
Q 5097 3584 5394 3201 
Q 5691 2819 5691 2113 
L 5691 0 
L 5113 0 
L 5113 2094 
Q 5113 2597 4934 2840 
Q 4756 3084 4391 3084 
Q 3944 3084 3684 2787 
Q 3425 2491 3425 1978 
L 3425 0 
L 2847 0 
L 2847 2094 
Q 2847 2600 2669 2842 
Q 2491 3084 2119 3084 
Q 1678 3084 1418 2786 
Q 1159 2488 1159 1978 
L 1159 0 
L 581 0 
L 581 3500 
L 1159 3500 
L 1159 2956 
Q 1356 3278 1631 3431 
Q 1906 3584 2284 3584 
Q 2666 3584 2933 3390 
Q 3200 3197 3328 2828 
z
" id="DejaVuSans-6d" transform="scale(0.015625)"/>
      <path d="M 191 3500 
L 800 3500 
L 1894 563 
L 2988 3500 
L 3597 3500 
L 2284 0 
L 1503 0 
L 191 3500 
z
" id="DejaVuSans-76" transform="scale(0.015625)"/>
      <path d="M 3809 666 
L 3809 1919 
L 2778 1919 
L 2778 2438 
L 4434 2438 
L 4434 434 
Q 4069 175 3628 42 
Q 3188 -91 2688 -91 
Q 1594 -91 976 548 
Q 359 1188 359 2328 
Q 359 3472 976 4111 
Q 1594 4750 2688 4750 
Q 3144 4750 3555 4637 
Q 3966 4525 4313 4306 
L 4313 3634 
Q 3963 3931 3569 4081 
Q 3175 4231 2741 4231 
Q 1884 4231 1454 3753 
Q 1025 3275 1025 2328 
Q 1025 1384 1454 906 
Q 1884 428 2741 428 
Q 3075 428 3337 486 
Q 3600 544 3809 666 
z
" id="DejaVuSans-47" transform="scale(0.015625)"/>
      <path d="M 628 4666 
L 1259 4666 
L 1259 2753 
L 3553 2753 
L 3553 4666 
L 4184 4666 
L 4184 0 
L 3553 0 
L 3553 2222 
L 1259 2222 
L 1259 0 
L 628 0 
L 628 4666 
z
" id="DejaVuSans-48" transform="scale(0.015625)"/>
      <path d="M 544 1381 
L 544 3500 
L 1119 3500 
L 1119 1403 
Q 1119 906 1312 657 
Q 1506 409 1894 409 
Q 2359 409 2629 706 
Q 2900 1003 2900 1516 
L 2900 3500 
L 3475 3500 
L 3475 0 
L 2900 0 
L 2900 538 
Q 2691 219 2414 64 
Q 2138 -91 1772 -91 
Q 1169 -91 856 284 
Q 544 659 544 1381 
z
M 1991 3584 
L 1991 3584 
z
" id="DejaVuSans-75" transform="scale(0.015625)"/>
     </defs>
     <use xlink:href="#DejaVuSans-43"/>
     <use x="69.824219" xlink:href="#DejaVuSans-4d"/>
     <use x="156.103516" xlink:href="#DejaVuSans-53"/>
     <use x="219.580078" xlink:href="#DejaVuSans-53"/>
     <use x="283.056641" xlink:href="#DejaVuSans-57"/>
     <use x="381.933594" xlink:href="#DejaVuSans-20"/>
     <use x="413.720703" xlink:href="#DejaVuSans-6d"/>
     <use x="511.132812" xlink:href="#DejaVuSans-6f"/>
     <use x="572.314453" xlink:href="#DejaVuSans-76"/>
     <use x="631.494141" xlink:href="#DejaVuSans-65"/>
     <use x="693.017578" xlink:href="#DejaVuSans-64"/>
     <use x="756.494141" xlink:href="#DejaVuSans-20"/>
     <use x="788.28125" xlink:href="#DejaVuSans-74"/>
     <use x="827.490234" xlink:href="#DejaVuSans-6f"/>
     <use x="888.671875" xlink:href="#DejaVuSans-20"/>
     <use x="920.458984" xlink:href="#DejaVuSans-47"/>
     <use x="997.949219" xlink:href="#DejaVuSans-69"/>
     <use x="1025.732422" xlink:href="#DejaVuSans-74"/>
     <use x="1064.941406" xlink:href="#DejaVuSans-48"/>
     <use x="1140.136719" xlink:href="#DejaVuSans-75"/>
     <use x="1203.515625" xlink:href="#DejaVuSans-62"/>
    </g>
   </g>
   <g id="legend_1">
    <g id="patch_7">
     <path d="M 97 136.5525 
L 215.967188 136.5525 
Q 217.967188 136.5525 217.967188 134.5525 
L 217.967188 58.84 
Q 217.967188 56.84 215.967188 56.84 
L 97 56.84 
Q 95 56.84 95 58.84 
L 95 134.5525 
Q 95 136.5525 97 136.5525 
z
" style="fill:#ffffff;stroke:#cccccc;stroke-linejoin:miter;"/>
    </g>
    <g id="LineCollection_4">
     <path d="M 109 69.938438 
L 109 59.938438 
" style="fill:none;stroke:#1f77b4;stroke-width:1.5;"/>
    </g>
    <g id="line2d_29"/>
    <g id="line2d_30">
     <g>
      <use style="fill:#1f77b4;stroke:#1f77b4;" x="109" xlink:href="#m15996e89d4" y="64.938438"/>
     </g>
    </g>
    <g id="text_24">
     <!-- C and C++ -->
     <g transform="translate(127 68.438438)scale(0.1 -0.1)">
      <defs>
       <path d="M 2944 4013 
L 2944 2272 
L 4684 2272 
L 4684 1741 
L 2944 1741 
L 2944 0 
L 2419 0 
L 2419 1741 
L 678 1741 
L 678 2272 
L 2419 2272 
L 2419 4013 
L 2944 4013 
z
" id="DejaVuSans-2b" transform="scale(0.015625)"/>
      </defs>
      <use xlink:href="#DejaVuSans-43"/>
      <use x="69.824219" xlink:href="#DejaVuSans-20"/>
      <use x="101.611328" xlink:href="#DejaVuSans-61"/>
      <use x="162.890625" xlink:href="#DejaVuSans-6e"/>
      <use x="226.269531" xlink:href="#DejaVuSans-64"/>
      <use x="289.746094" xlink:href="#DejaVuSans-20"/>
      <use x="321.533203" xlink:href="#DejaVuSans-43"/>
      <use x="391.357422" xlink:href="#DejaVuSans-2b"/>
      <use x="475.146484" xlink:href="#DejaVuSans-2b"/>
     </g>
    </g>
    <g id="LineCollection_5">
     <path d="M 109 90.616563 
L 109 80.616563 
" style="fill:none;stroke:#ff7f0e;stroke-width:1.5;"/>
    </g>
    <g id="line2d_31"/>
    <g id="line2d_32">
     <g>
      <use style="fill:#ff7f0e;stroke:#ff7f0e;" x="109" xlink:href="#m1ff61367fc" y="85.616563"/>
     </g>
    </g>
    <g id="text_25">
     <!-- Python -->
     <g transform="translate(127 89.116563)scale(0.1 -0.1)">
      <defs>
       <path d="M 1259 4147 
L 1259 2394 
L 2053 2394 
Q 2494 2394 2734 2622 
Q 2975 2850 2975 3272 
Q 2975 3691 2734 3919 
Q 2494 4147 2053 4147 
L 1259 4147 
z
M 628 4666 
L 2053 4666 
Q 2838 4666 3239 4311 
Q 3641 3956 3641 3272 
Q 3641 2581 3239 2228 
Q 2838 1875 2053 1875 
L 1259 1875 
L 1259 0 
L 628 0 
L 628 4666 
z
" id="DejaVuSans-50" transform="scale(0.015625)"/>
      </defs>
      <use xlink:href="#DejaVuSans-50"/>
      <use x="60.302734" xlink:href="#DejaVuSans-79"/>
      <use x="119.482422" xlink:href="#DejaVuSans-74"/>
      <use x="158.691406" xlink:href="#DejaVuSans-68"/>
      <use x="222.070312" xlink:href="#DejaVuSans-6f"/>
      <use x="283.251953" xlink:href="#DejaVuSans-6e"/>
     </g>
    </g>
    <g id="LineCollection_6">
     <path d="M 109 111.294688 
L 109 101.294688 
" style="fill:none;stroke:#2ca02c;stroke-width:1.5;"/>
    </g>
    <g id="line2d_33"/>
    <g id="line2d_34">
     <g>
      <use style="fill:#2ca02c;stroke:#2ca02c;" x="109" xlink:href="#ma9a56980a1" y="106.294688"/>
     </g>
    </g>
    <g id="text_26">
     <!-- Jupyter Notebook -->
     <g transform="translate(127 109.794688)scale(0.1 -0.1)">
      <defs>
       <path d="M 628 4666 
L 1259 4666 
L 1259 325 
Q 1259 -519 939 -900 
Q 619 -1281 -91 -1281 
L -331 -1281 
L -331 -750 
L -134 -750 
Q 284 -750 456 -515 
Q 628 -281 628 325 
L 628 4666 
z
" id="DejaVuSans-4a" transform="scale(0.015625)"/>
       <path d="M 628 4666 
L 1478 4666 
L 3547 763 
L 3547 4666 
L 4159 4666 
L 4159 0 
L 3309 0 
L 1241 3903 
L 1241 0 
L 628 0 
L 628 4666 
z
" id="DejaVuSans-4e" transform="scale(0.015625)"/>
       <path d="M 581 4863 
L 1159 4863 
L 1159 1991 
L 2875 3500 
L 3609 3500 
L 1753 1863 
L 3688 0 
L 2938 0 
L 1159 1709 
L 1159 0 
L 581 0 
L 581 4863 
z
" id="DejaVuSans-6b" transform="scale(0.015625)"/>
      </defs>
      <use xlink:href="#DejaVuSans-4a"/>
      <use x="29.492188" xlink:href="#DejaVuSans-75"/>
      <use x="92.871094" xlink:href="#DejaVuSans-70"/>
      <use x="156.347656" xlink:href="#DejaVuSans-79"/>
      <use x="215.527344" xlink:href="#DejaVuSans-74"/>
      <use x="254.736328" xlink:href="#DejaVuSans-65"/>
      <use x="316.259766" xlink:href="#DejaVuSans-72"/>
      <use x="357.373047" xlink:href="#DejaVuSans-20"/>
      <use x="389.160156" xlink:href="#DejaVuSans-4e"/>
      <use x="463.964844" xlink:href="#DejaVuSans-6f"/>
      <use x="525.146484" xlink:href="#DejaVuSans-74"/>
      <use x="564.355469" xlink:href="#DejaVuSans-65"/>
      <use x="625.878906" xlink:href="#DejaVuSans-62"/>
      <use x="689.355469" xlink:href="#DejaVuSans-6f"/>
      <use x="750.537109" xlink:href="#DejaVuSans-6f"/>
      <use x="811.71875" xlink:href="#DejaVuSans-6b"/>
     </g>
    </g>
    <g id="line2d_35">
     <path d="M 99 126.972813 
L 119 126.972813 
" style="fill:none;stroke:#7f7f7f;stroke-dasharray:1.5,2.475;stroke-dashoffset:0;stroke-width:1.5;"/>
    </g>
    <g id="line2d_36"/>
    <g id="text_27">
     <!-- (total) -->
     <g transform="translate(127 130.472813)scale(0.1 -0.1)">
      <defs>
       <path d="M 1984 4856 
Q 1566 4138 1362 3434 
Q 1159 2731 1159 2009 
Q 1159 1288 1364 580 
Q 1569 -128 1984 -844 
L 1484 -844 
Q 1016 -109 783 600 
Q 550 1309 550 2009 
Q 550 2706 781 3412 
Q 1013 4119 1484 4856 
L 1984 4856 
z
" id="DejaVuSans-28" transform="scale(0.015625)"/>
       <path d="M 603 4863 
L 1178 4863 
L 1178 0 
L 603 0 
L 603 4863 
z
" id="DejaVuSans-6c" transform="scale(0.015625)"/>
       <path d="M 513 4856 
L 1013 4856 
Q 1481 4119 1714 3412 
Q 1947 2706 1947 2009 
Q 1947 1309 1714 600 
Q 1481 -109 1013 -844 
L 513 -844 
Q 928 -128 1133 580 
Q 1338 1288 1338 2009 
Q 1338 2731 1133 3434 
Q 928 4138 513 4856 
z
" id="DejaVuSans-29" transform="scale(0.015625)"/>
      </defs>
      <use xlink:href="#DejaVuSans-28"/>
      <use x="39.013672" xlink:href="#DejaVuSans-74"/>
      <use x="78.222656" xlink:href="#DejaVuSans-6f"/>
      <use x="139.404297" xlink:href="#DejaVuSans-74"/>
      <use x="178.613281" xlink:href="#DejaVuSans-61"/>
      <use x="239.892578" xlink:href="#DejaVuSans-6c"/>
      <use x="267.675781" xlink:href="#DejaVuSans-29"/>
     </g>
    </g>
   </g>
  </g>
 </g>
 <defs>
  <clipPath id="p7bb392c0d8">
   <rect height="293.76" width="558" x="90" y="51.84"/>
  </clipPath>
 </defs>
</svg>
